<svg width="138" height="40" viewBox="0 0 138 40" fill="none" xmlns="http://www.w3.org/2000/svg">
<rect x="1" y="0.5" width="136" height="39" rx="4" fill="white" stroke="#979797" stroke-width="0.5"/>
<path d="M31.8764 21.4549C31.8463 17.6671 35.0556 15.8271 35.196 15.739C33.3807 13.1551 30.5625 12.8028 29.5697 12.7734C27.2028 12.5287 24.9061 14.1534 23.7026 14.1534C22.469 14.1534 20.6136 12.793 18.6178 12.8321C16.0403 12.8713 13.6333 14.3296 12.3095 16.5905C9.58155 21.2004 11.6175 27.9733 14.225 31.6925C15.5288 33.513 17.0633 35.5488 19.0591 35.4802C21.0148 35.4019 21.7469 34.2666 24.1038 34.2666C26.4406 34.2666 27.1326 35.4802 29.1685 35.4411C31.2646 35.4117 32.5884 33.6108 33.8521 31.7708C35.3665 29.6763 35.9683 27.6209 35.9883 27.5133C35.9482 27.4937 31.9165 25.9962 31.8764 21.4549Z" fill="black"/>
<path d="M28.0253 10.3266C29.0784 9.04447 29.8005 7.29252 29.5999 5.521C28.0755 5.58951 26.1699 6.54868 25.0768 7.80147C24.1039 8.90745 23.2414 10.7181 23.4621 12.4309C25.177 12.5582 26.9321 11.5892 28.0253 10.3266Z" fill="black"/>
<path fill-rule="evenodd" clip-rule="evenodd" d="M48.658 26.8879H50.8542L46.7031 14.6699H44.1448L40.0098 26.8879H42.1417L43.284 23.2998H47.4593L48.658 26.8879ZM46.0112 18.6023L47.0973 21.7926H43.6541L44.708 18.6023C44.9895 17.5848 45.1906 16.8197 45.3194 16.2995H45.3596C45.6814 17.5083 45.8986 18.2733 46.0112 18.6023Z" fill="black"/>
<path fill-rule="evenodd" clip-rule="evenodd" d="M60.2105 25.9241C61.0632 25.0595 61.4896 23.8737 61.4896 22.3742C61.4896 21.0353 61.1276 19.949 60.3955 19.138C59.6634 18.3194 58.7544 17.9062 57.6603 17.9062C56.2605 17.9062 55.2146 18.4265 54.5308 19.4823H54.4906L54.378 18.0822H52.5679C52.6161 19.0768 52.6403 20.0408 52.6403 20.9818V30.4838H54.6998V25.8399H54.74C55.2709 26.6738 56.1478 27.0869 57.3706 27.0869C58.4969 27.0869 59.4462 26.6968 60.2105 25.9241ZM58.7865 20.3238C59.1968 20.8823 59.3979 21.5862 59.3979 22.443C59.3979 23.3764 59.1807 24.1262 58.7383 24.7C58.3038 25.2661 57.7005 25.5492 56.9282 25.5492C56.2685 25.5492 55.7295 25.3273 55.3192 24.8836C54.9089 24.4398 54.6998 23.9043 54.6998 23.2617V21.7927C54.6998 21.6397 54.7319 21.4408 54.7963 21.196C54.925 20.6758 55.1985 20.255 55.6088 19.9337C56.0272 19.6123 56.4857 19.4517 56.9925 19.4517C57.7407 19.4517 58.3441 19.7424 58.7865 20.3238Z" fill="black"/>
<path fill-rule="evenodd" clip-rule="evenodd" d="M70.8697 25.9241C71.7224 25.0595 72.1488 23.8737 72.1488 22.3742C72.1488 21.0353 71.7787 19.949 71.0547 19.138C70.3226 18.3194 69.4135 17.9062 68.3194 17.9062C66.9196 17.9062 65.8738 18.4265 65.19 19.4823H65.1498L65.0371 18.0822H63.2271C63.2753 19.0768 63.2995 20.0408 63.2995 20.9818V30.4838H65.3589V25.8399H65.3992C65.9301 26.6738 66.807 27.0869 68.0298 27.0869C69.1641 27.0869 70.1054 26.6968 70.8697 25.9241ZM69.4377 20.3238C69.848 20.8823 70.0491 21.5862 70.0491 22.443C70.0491 23.3764 69.8319 24.1262 69.3894 24.7C68.955 25.2661 68.3516 25.5492 67.5793 25.5492C66.9196 25.5492 66.3806 25.3273 65.9703 24.8836C65.5601 24.4398 65.3509 23.9043 65.3509 23.2617V21.7927C65.3509 21.6397 65.3831 21.4408 65.4474 21.196C65.5761 20.6758 65.8497 20.255 66.26 19.9337C66.6783 19.6123 67.1368 19.4517 67.6437 19.4517C68.3999 19.4517 68.9952 19.7424 69.4377 20.3238Z" fill="black"/>
<path d="M84.0633 23.4605C84.0633 24.501 83.6852 25.3426 82.9209 26.0005C82.0842 26.712 80.9177 27.0716 79.4214 27.0716C78.0377 27.0716 76.9275 26.8191 76.0908 26.3142L76.5655 24.6846C77.4665 25.2049 78.4641 25.465 79.5421 25.465C80.3144 25.465 80.9177 25.2967 81.3522 24.9677C81.7866 24.6387 81.9957 24.1873 81.9957 23.6365C81.9957 23.1392 81.8188 22.7261 81.4648 22.3818C81.1108 22.0452 80.5155 21.7315 79.6949 21.4408C77.4424 20.6451 76.3241 19.4746 76.3241 17.9368C76.3241 16.9346 76.7183 16.1083 77.5067 15.4657C78.2951 14.823 79.3409 14.5017 80.6522 14.5017C81.8188 14.5017 82.7922 14.693 83.5645 15.0832L83.0496 16.6821C82.3256 16.3072 81.505 16.1236 80.5879 16.1236C79.8639 16.1236 79.3007 16.2919 78.8904 16.6286C78.5445 16.9269 78.3756 17.3018 78.3756 17.7379C78.3756 18.2199 78.5686 18.6177 78.9628 18.9314C79.3088 19.2221 79.9282 19.5358 80.8292 19.8724C81.9314 20.2932 82.7439 20.7905 83.2668 21.3566C83.7978 21.9075 84.0633 22.619 84.0633 23.4605Z" fill="black"/>
<path d="M90.8611 19.5512H88.5925V23.8279C88.5925 24.9142 88.9947 25.4574 89.7912 25.4574C90.1612 25.4574 90.4669 25.4268 90.7083 25.3656L90.7646 26.8498C90.3623 26.9952 89.8233 27.064 89.1637 27.064C88.3511 27.064 87.7156 26.8269 87.257 26.3602C86.7985 25.8859 86.5732 25.0978 86.5732 23.9885V19.5512H85.2217V18.0746H86.5732V16.4603L88.5925 15.8789V18.0746H90.8611V19.5512Z" fill="black"/>
<path fill-rule="evenodd" clip-rule="evenodd" d="M99.8796 25.7482C100.692 24.876 101.102 23.7667 101.102 22.4125C101.102 21.0966 100.708 20.0179 99.9198 19.184C99.0912 18.3271 97.9971 17.8987 96.6375 17.8987C95.2297 17.8987 94.1034 18.3348 93.2748 19.2069C92.4462 20.0714 92.0278 21.1961 92.0278 22.5579C92.0278 23.8585 92.4301 24.9449 93.2346 25.8017C94.0471 26.6586 95.1251 27.087 96.4847 27.087C97.8925 27.087 99.0268 26.6433 99.8796 25.7482ZM98.4074 20.3851C98.7775 20.9666 98.9625 21.6628 98.9625 22.4737C98.9625 23.2847 98.7775 23.9885 98.3833 24.5853C97.9328 25.2968 97.3213 25.6564 96.5329 25.6564C95.7365 25.6564 95.109 25.3044 94.6665 24.6006C94.2965 24.0191 94.1114 23.3229 94.1114 22.512C94.1114 21.6781 94.2965 20.9666 94.6665 20.3851C95.101 19.6813 95.7285 19.3293 96.5571 19.3293C97.3616 19.3293 97.973 19.6813 98.4074 20.3851Z" fill="black"/>
<path d="M107.788 19.8035C107.587 19.7653 107.369 19.75 107.136 19.75C106.412 19.75 105.849 20.0101 105.455 20.5303C105.109 20.9894 104.94 21.5708 104.94 22.267V26.8879H102.88L102.896 20.8516C102.896 19.8341 102.872 18.9084 102.816 18.0745H104.61L104.682 19.7576H104.739C104.956 19.1762 105.302 18.7095 105.768 18.3652C106.227 18.0515 106.726 17.8909 107.257 17.8909C107.45 17.8909 107.619 17.9062 107.772 17.9291L107.788 19.8035Z" fill="black"/>
<path fill-rule="evenodd" clip-rule="evenodd" d="M116.927 22.9556C116.975 22.7108 116.999 22.4201 116.999 22.0682C116.999 20.9665 116.726 20.0408 116.179 19.2987C115.495 18.3576 114.481 17.8833 113.146 17.8833C111.786 17.8833 110.7 18.3576 109.904 19.2987C109.139 20.1861 108.761 21.2878 108.761 22.619C108.761 23.9732 109.172 25.0519 109.992 25.8552C110.813 26.6585 111.939 27.064 113.379 27.064C114.57 27.064 115.607 26.888 116.484 26.5208L116.162 25.159C115.406 25.4344 114.578 25.5721 113.661 25.5721C112.832 25.5721 112.164 25.3656 111.641 24.9524C111.07 24.4934 110.772 23.8278 110.748 22.9556H116.927ZM114.634 20.0484C114.916 20.4768 115.052 20.9741 115.036 21.5556L110.74 21.5479C110.805 20.9588 111.006 20.4462 111.352 20.0255C111.77 19.4976 112.317 19.2298 112.993 19.2298C113.733 19.2298 114.28 19.5052 114.634 20.0484Z" fill="black"/>
<path fill-rule="evenodd" clip-rule="evenodd" d="M43.4062 11.9798C43.7987 11.6436 43.9927 11.137 43.9927 10.4695C43.9927 9.87763 43.8126 9.41838 43.4523 9.10116C43.129 8.81709 42.6487 8.67505 42.0159 8.67505C41.6557 8.67505 41.3231 8.69872 41.0137 8.7508V12.4059C41.2492 12.4343 41.531 12.4485 41.8635 12.4485C42.5286 12.4485 43.0459 12.2923 43.4062 11.9798ZM43.0413 9.4894C43.2676 9.72139 43.3784 10.0528 43.3784 10.4884C43.3784 10.9713 43.2537 11.3454 43.0136 11.5963C42.7734 11.8472 42.427 11.975 41.9836 11.975C41.7942 11.975 41.6603 11.9703 41.591 11.9608V9.18165C41.7203 9.15798 41.8727 9.14377 42.0575 9.14377C42.4917 9.14377 42.8196 9.2574 43.0413 9.4894Z" fill="black"/>
<path fill-rule="evenodd" clip-rule="evenodd" d="M46.8935 12.0698C47.1244 11.8047 47.2399 11.4685 47.2399 11.0566C47.2399 10.6542 47.1291 10.3275 46.9027 10.0766C46.6718 9.81143 46.3624 9.68359 45.979 9.68359C45.5818 9.68359 45.2677 9.81616 45.0322 10.0813C44.7966 10.3464 44.6812 10.6826 44.6812 11.0992C44.6812 11.4922 44.7966 11.8236 45.0229 12.084C45.2493 12.3492 45.5541 12.477 45.9374 12.477C46.3346 12.477 46.6533 12.3397 46.8935 12.0698ZM46.4824 10.4411C46.5887 10.6163 46.6395 10.8294 46.6395 11.0756C46.6395 11.3218 46.5841 11.5348 46.4778 11.7195C46.3531 11.9373 46.1776 12.0461 45.9559 12.0461C45.7296 12.0461 45.5541 11.9373 45.4294 11.7242C45.3232 11.549 45.2723 11.336 45.2723 11.0898C45.2723 10.8341 45.3232 10.6163 45.4294 10.4411C45.5495 10.2281 45.725 10.1192 45.9605 10.1192C46.1868 10.1192 46.3624 10.2281 46.4824 10.4411Z" fill="black"/>
<path d="M51.595 9.74048L50.7775 12.4202H50.2463L49.9092 11.2555C49.8214 10.9667 49.7521 10.6779 49.7013 10.3891H49.6921C49.6413 10.6827 49.572 10.9715 49.4842 11.2555L49.124 12.4202H48.5836L47.8169 9.74048H48.4127L48.7083 11.0141C48.7776 11.3171 48.8376 11.6012 48.8838 11.8758H48.893C48.9346 11.6532 49.0085 11.3644 49.1101 11.0235L49.4796 9.74521H49.9507L50.3064 10.9951C50.3941 11.2982 50.4634 11.5917 50.5142 11.8758H50.5281C50.5696 11.6012 50.6251 11.3076 50.7036 10.9951L51.0223 9.74521L51.595 9.74048Z" fill="black"/>
<path d="M54.6065 12.4153H54.0246V10.8813C54.0246 10.4078 53.8491 10.1711 53.498 10.1711C53.3271 10.1711 53.1886 10.2374 53.0777 10.3652C52.9715 10.4931 52.9161 10.6493 52.9161 10.8245V12.4153H52.3341V10.5025C52.3341 10.2658 52.3249 10.0101 52.311 9.73553H52.8237L52.8514 10.1522H52.8653C52.9346 10.0243 53.0316 9.91544 53.1655 9.83022C53.3225 9.73079 53.498 9.67871 53.692 9.67871C53.9368 9.67871 54.14 9.7592 54.3017 9.92017C54.5003 10.119 54.6019 10.4126 54.6019 10.8055V12.4153H54.6065Z" fill="black"/>
<path d="M56.2045 12.4153H55.6226V8.50928H56.2045V12.4153Z" fill="black"/>
<path fill-rule="evenodd" clip-rule="evenodd" d="M59.2807 12.0698C59.5116 11.8047 59.6271 11.4685 59.6271 11.0566C59.6271 10.6542 59.5163 10.3275 59.2899 10.0766C59.059 9.81143 58.7496 9.68359 58.3662 9.68359C57.969 9.68359 57.6549 9.81616 57.4194 10.0813C57.1838 10.3464 57.0684 10.6826 57.0684 11.0992C57.0684 11.4922 57.1838 11.8236 57.4101 12.084C57.6365 12.3492 57.9413 12.477 58.3246 12.477C58.7219 12.477 59.0405 12.3397 59.2807 12.0698ZM58.865 10.4411C58.9713 10.6163 59.0221 10.8294 59.0221 11.0756C59.0221 11.3218 58.9713 11.5348 58.8604 11.7195C58.7357 11.9373 58.5602 12.0461 58.3385 12.0461C58.1122 12.0461 57.9367 11.9373 57.812 11.7242C57.7057 11.549 57.6549 11.336 57.6549 11.0898C57.6549 10.8341 57.7057 10.6163 57.812 10.4411C57.9321 10.2281 58.1076 10.1192 58.3431 10.1192C58.5694 10.1192 58.7449 10.2281 58.865 10.4411Z" fill="black"/>
<path fill-rule="evenodd" clip-rule="evenodd" d="M61.9134 12.4153H62.4353C62.4122 12.2591 62.3984 12.046 62.4076 11.7714V10.7866C62.4076 10.048 62.0658 9.67871 61.3823 9.67871C61.0266 9.67871 60.731 9.75446 60.4862 9.91071L60.6063 10.3037C60.8003 10.1711 61.0266 10.1048 61.2853 10.1048C61.6455 10.1048 61.8257 10.28 61.8257 10.6351V10.6872C61.3407 10.6872 60.9666 10.7724 60.6987 10.9428C60.4308 11.1133 60.2969 11.3642 60.2969 11.6909C60.2969 11.9087 60.3615 12.0886 60.5001 12.2354C60.6479 12.3964 60.8511 12.4768 61.0959 12.4768C61.4238 12.4768 61.6779 12.3537 61.858 12.1075H61.8718L61.9134 12.4153ZM61.8349 11.0849V11.4968C61.8349 11.5347 61.8303 11.5725 61.8257 11.6009C61.7979 11.7288 61.7333 11.8329 61.6224 11.9182C61.5116 11.9987 61.3961 12.0413 61.2668 12.0413C61.156 12.0413 61.059 12.0081 60.9851 11.9371C60.9112 11.8708 60.8742 11.7667 60.8742 11.6246C60.8742 11.2553 61.1929 11.0754 61.8349 11.0849Z" fill="black"/>
<path fill-rule="evenodd" clip-rule="evenodd" d="M65.2205 12.4155H65.7377C65.7239 12.1977 65.7193 11.9562 65.7147 11.7005V8.51416H65.1327V10.0529H65.1235C64.9849 9.81143 64.7401 9.68834 64.3891 9.68834C64.0658 9.68834 63.7979 9.81143 63.5808 10.0624C63.3545 10.3275 63.2437 10.6779 63.2437 11.1134C63.2437 11.5159 63.3453 11.8473 63.5531 12.0982C63.7609 12.3492 64.0242 12.477 64.3383 12.477C64.7355 12.477 65.0126 12.3113 65.1789 11.9846H65.1927L65.2205 12.4155ZM65.1373 10.8436V11.2886C65.1373 11.478 65.0819 11.6437 64.9757 11.7763C64.8602 11.9278 64.7078 11.9988 64.5184 11.9988C64.306 11.9988 64.1351 11.9089 64.0104 11.7337C63.8903 11.568 63.8302 11.3549 63.8302 11.0898C63.8302 10.8152 63.8903 10.5879 64.015 10.4127C64.1397 10.2375 64.3106 10.1476 64.5276 10.1476C64.6754 10.1476 64.8094 10.1949 64.9156 10.2944C65.0218 10.3891 65.0911 10.5122 65.1235 10.6542C65.1327 10.7015 65.1373 10.7678 65.1373 10.8436Z" fill="black"/>
<path fill-rule="evenodd" clip-rule="evenodd" d="M70.3608 12.0698C70.5917 11.8047 70.7072 11.4685 70.7072 11.0566C70.7072 10.6542 70.5963 10.3275 70.3746 10.0766C70.1437 9.81143 69.8343 9.68359 69.4509 9.68359C69.0491 9.68359 68.735 9.81616 68.4995 10.0813C68.2639 10.3464 68.1484 10.6826 68.1484 11.0992C68.1484 11.4922 68.2639 11.8236 68.4902 12.084C68.7165 12.3492 69.0214 12.477 69.4047 12.477C69.8019 12.477 70.1206 12.3397 70.3608 12.0698ZM69.9451 10.4411C70.0513 10.6163 70.1021 10.8294 70.1021 11.0756C70.1021 11.3218 70.0513 11.5348 69.9405 11.7195C69.8158 11.9373 69.6403 12.0461 69.4186 12.0461C69.1923 12.0461 69.0168 11.9373 68.892 11.7242C68.7858 11.549 68.735 11.336 68.735 11.0898C68.735 10.8341 68.7858 10.6163 68.892 10.4411C69.0121 10.2281 69.1923 10.1192 69.4232 10.1192C69.6495 10.1192 69.8204 10.2281 69.9451 10.4411Z" fill="black"/>
<path d="M73.8294 12.4153H73.2475V10.8813C73.2475 10.4078 73.072 10.1711 72.721 10.1711C72.5501 10.1711 72.4115 10.2374 72.3007 10.3652C72.1944 10.4931 72.139 10.6493 72.139 10.8245V12.4153H71.557V10.5025C71.557 10.2658 71.5524 10.0101 71.5386 9.73553H72.0466L72.0743 10.1522H72.0882C72.1575 10.0243 72.2591 9.91544 72.3884 9.83022C72.5454 9.73079 72.721 9.67871 72.9149 9.67871C73.1597 9.67871 73.363 9.7592 73.5246 9.92017C73.7278 10.119 73.8248 10.4126 73.8248 10.8055V12.4153H73.8294Z" fill="black"/>
<path d="M77.737 10.1854H77.0996V11.4874C77.0996 11.8188 77.2151 11.9845 77.4368 11.9845C77.543 11.9845 77.6262 11.975 77.6954 11.9561L77.7093 12.4059C77.5938 12.4485 77.446 12.4722 77.2567 12.4722C77.0257 12.4722 76.8502 12.4012 76.7209 12.2591C76.5916 12.1171 76.5269 11.8756 76.5269 11.5347V10.1854H76.1436V9.74033H76.5269V9.24793L77.095 9.07275V9.74033H77.7324L77.737 10.1854Z" fill="black"/>
<path d="M80.8129 12.4154H80.231V10.8909C80.231 10.4127 80.0555 10.1712 79.7044 10.1712C79.4366 10.1712 79.2518 10.3085 79.1502 10.5879C79.1317 10.6447 79.1225 10.7157 79.1225 10.8009V12.4107H78.5405V8.50464H79.1225V10.1191H79.1317C79.3165 9.82559 79.5751 9.67881 79.9169 9.67881C80.1571 9.67881 80.3557 9.7593 80.5127 9.92028C80.7113 10.1239 80.8083 10.4221 80.8083 10.8198L80.8129 12.4154Z" fill="black"/>
<path fill-rule="evenodd" clip-rule="evenodd" d="M83.9627 11.2222C83.9766 11.1512 83.9858 11.0612 83.9858 10.9523C83.9858 10.6162 83.9073 10.3368 83.7549 10.1096C83.5609 9.82075 83.2745 9.67871 82.9004 9.67871C82.5171 9.67871 82.2122 9.82548 81.9859 10.1096C81.7688 10.3794 81.6626 10.7156 81.6626 11.118C81.6626 11.5299 81.7781 11.8566 82.009 12.1028C82.2399 12.3443 82.5586 12.4674 82.9651 12.4674C83.3022 12.4674 83.5932 12.4106 83.8426 12.3017L83.7502 11.8898C83.5378 11.975 83.3022 12.0176 83.0436 12.0176C82.8127 12.0176 82.6233 11.9513 82.4755 11.8282C82.3138 11.6909 82.2307 11.4873 82.2215 11.2222H83.9627ZM83.3207 10.3368C83.3992 10.4694 83.4362 10.6209 83.4316 10.7961H82.2261C82.2446 10.6162 82.3 10.4599 82.397 10.3321C82.5124 10.1711 82.6695 10.0906 82.8588 10.0906C83.0667 10.0906 83.2191 10.1711 83.3207 10.3368Z" fill="black"/>
</svg>
