<svg width="135" height="40" viewBox="0 0 135 40" fill="none" xmlns="http://www.w3.org/2000/svg">
<path d="M130 40H5C2.2 40 0 37.7 0 35V5C0 2.2 2.3 0 5 0H130C132.8 0 135 2.3 135 5V35C135 37.7 132.8 40 130 40Z" fill="white"/>
<path fill-rule="evenodd" clip-rule="evenodd" d="M5 0H130C132.8 0 135 2.3 135 5V35C135 37.7 132.8 40 130 40H5C2.3 40 0 37.8 0 35V5C0 2.3 2.2 0 5 0ZM134.2 5C134.2 2.7 132.3 0.8 130 0.8H5C2.7 0.8 0.8 2.7 0.8 5V35C0.8 37.3 2.7 39.2 5 39.2H130C132.3 39.2 134.2 37.3 134.2 35V5Z" fill="#A6A6A6"/>
<path d="M47.3999 10.1999C47.3999 10.9999 47.1999 11.6999 46.6999 12.1999C46.0999 12.7999 45.3999 13.0999 44.4999 13.0999C43.5999 13.0999 42.8999 12.7999 42.2999 12.1999C41.6999 11.5999 41.3999 10.8999 41.3999 9.9999C41.3999 9.0999 41.6999 8.3999 42.2999 7.7999C42.8999 7.1999 43.5999 6.8999 44.4999 6.8999C44.8999 6.8999 45.2999 6.9999 45.6999 7.1999C46.0999 7.3999 46.3999 7.5999 46.5999 7.8999L46.0999 8.3999C45.6999 7.8999 45.1999 7.6999 44.4999 7.6999C43.8999 7.6999 43.2999 7.8999 42.8999 8.3999C42.3999 8.7999 42.1999 9.3999 42.1999 10.0999C42.1999 10.7999 42.3999 11.3999 42.8999 11.7999C43.3999 12.1999 43.8999 12.4999 44.4999 12.4999C45.1999 12.4999 45.6999 12.2999 46.1999 11.7999C46.4999 11.4999 46.6999 11.0999 46.6999 10.5999H44.4999V9.8999H47.3999C47.3999 9.8999 47.3999 10.0999 47.3999 10.1999Z" fill="black"/>
<path d="M52 7.6999H49.3V9.5999H51.8V10.2999H49.3V12.1999H52V12.8999H48.5V6.8999H52V7.6999Z" fill="black"/>
<path d="M55.2998 13H54.4998V7.7H52.7998V7H56.8998V7.7H55.1998V13H55.2998Z" fill="black"/>
<path d="M59.8998 13V7H60.6998V13H59.8998Z" fill="black"/>
<path d="M64.1001 13H63.3001V7.7H61.6001V7H65.7001V7.7H64.0001V13H64.1001Z" fill="black"/>
<path fill-rule="evenodd" clip-rule="evenodd" d="M71.3998 13.0999C72.2998 13.0999 72.9998 12.7999 73.5998 12.1999C74.1998 11.5999 74.4998 10.8999 74.4998 9.9999C74.4998 9.0999 74.1998 8.3999 73.5998 7.7999C72.9998 7.1999 72.2998 6.8999 71.3998 6.8999C70.4998 6.8999 69.7998 7.1999 69.1998 7.7999C68.5998 8.3999 68.2998 9.0999 68.2998 9.9999C68.2998 10.8999 68.5998 11.5999 69.1998 12.1999C69.7998 12.7999 70.4998 13.0999 71.3998 13.0999ZM71.3998 12.3999C70.7998 12.3999 70.1998 12.0999 69.7998 11.6999C69.2998 11.2999 69.0998 10.6999 69.0998 9.9999C69.0998 9.2999 69.3998 8.6999 69.7998 8.2999C70.1998 7.7999 70.7998 7.5999 71.3998 7.5999C71.9998 7.5999 72.5998 7.8999 72.9998 8.2999C73.4998 8.6999 73.6998 9.2999 73.6998 9.9999C73.6998 10.6999 73.3998 11.2999 72.9998 11.6999C72.5998 12.1999 71.9998 12.3999 71.3998 12.3999Z" fill="black"/>
<path d="M75.6001 13V7H76.5001L79.4001 11.7V10.5V7H80.2001V13H79.4001L76.3001 8.1V9.3V13H75.6001Z" fill="black"/>
<path fill-rule="evenodd" clip-rule="evenodd" d="M47.7001 23.1001V24.9001H52.0001C51.9001 25.9001 51.5001 26.7001 51.0001 27.2001C50.4001 27.8001 49.4001 28.5001 47.7001 28.5001C45.0001 28.5001 43.0001 26.4001 43.0001 23.7001C43.0001 21.0001 45.1001 18.9001 47.7001 18.9001C49.1001 18.9001 50.2001 19.5001 51.0001 20.2001L52.3001 18.9001C51.2001 17.9001 49.8001 17.1001 47.8001 17.1001C44.2001 17.1001 41.1001 20.1001 41.1001 23.7001C41.1001 27.3001 44.2001 30.3001 47.8001 30.3001C49.8001 30.3001 51.2001 29.7001 52.4001 28.4001C53.6001 27.2001 54.0001 25.5001 54.0001 24.2001V24.2001C54.0001 23.8001 54.0001 23.4001 53.9001 23.1001H47.7001ZM58.8001 21.8001C56.4001 21.8001 54.5001 23.6001 54.5001 26.1001C54.5001 28.5001 56.4001 30.4001 58.8001 30.4001C61.2001 30.4001 63.1001 28.6001 63.1001 26.1001C63.1001 23.5001 61.2001 21.8001 58.8001 21.8001ZM63.8001 26.1001C63.8001 23.6001 65.7001 21.8001 68.1001 21.8001C70.5001 21.8001 72.4001 23.5001 72.4001 26.1001C72.4001 28.6001 70.5001 30.4001 68.1001 30.4001C65.7001 30.4001 63.8001 28.5001 63.8001 26.1001ZM65.7001 26.0001C65.7001 27.5001 66.8001 28.6001 68.1001 28.6001C69.4001 28.6001 70.5001 27.5001 70.5001 26.0001C70.5001 24.4001 69.4001 23.4001 68.1001 23.4001C66.8001 23.4001 65.7001 24.5001 65.7001 26.0001ZM56.4001 26.0001C56.4001 27.5001 57.5001 28.6001 58.8001 28.6001C60.1001 28.6001 61.2001 27.5001 61.2001 26.0001C61.2001 24.4001 60.1001 23.4001 58.8001 23.4001C57.5001 23.4001 56.4001 24.5001 56.4001 26.0001ZM89.5001 21.8001C91.7001 21.8001 92.7001 23.5001 93.1001 24.5001L93.3001 25.0001L87.6001 27.4001C88.1001 28.3001 88.7001 28.7001 89.7001 28.7001C90.7001 28.7001 91.3001 28.2001 91.8001 27.5001L93.2001 28.5001C92.8001 29.2001 91.6001 30.4001 89.7001 30.4001C87.3001 30.4001 85.5001 28.5001 85.5001 26.1001C85.5001 23.5001 87.3001 21.8001 89.5001 21.8001ZM87.3001 25.9001C87.3001 24.3001 88.6001 23.4001 89.5001 23.4001C90.2001 23.4001 90.9001 23.8001 91.1001 24.3001L87.3001 25.9001ZM84.5001 30.0001H82.6001V17.5001H84.5001V30.0001ZM79.6001 22.7001C79.1001 22.2001 78.3001 21.7001 77.3001 21.7001C75.2001 21.7001 73.2001 23.6001 73.2001 26.0001C73.2001 28.4001 75.1001 30.2001 77.3001 30.2001C78.3001 30.2001 79.1001 29.7001 79.5001 29.2001H79.6001V29.8001C79.6001 31.4001 78.7001 32.3001 77.3001 32.3001C76.2001 32.3001 75.4001 31.5001 75.2001 30.8001L73.6001 31.5001C74.1001 32.6001 75.3001 34.0001 77.4001 34.0001C79.6001 34.0001 81.4001 32.7001 81.4001 29.6001V22.0001H79.6001V22.7001ZM75.0001 26.0001C75.0001 27.5001 76.1001 28.6001 77.4001 28.6001C78.7001 28.6001 79.7001 27.5001 79.7001 26.0001C79.7001 24.5001 78.7001 23.4001 77.4001 23.4001C76.1001 23.4001 75.0001 24.5001 75.0001 26.0001ZM101.8 17.5001H97.3001V30.0001H99.2001V25.3001H101.8C103.9 25.3001 105.9 23.8001 105.9 21.4001C105.9 19.0001 103.9 17.5001 101.8 17.5001ZM99.2001 23.5001H101.9C103.2 23.5001 104 22.4001 104.1 21.3001C104.1 20.4001 103.3 19.2001 101.9 19.2001H99.2001V23.5001ZM113.4 21.7001C112 21.7001 110.6 22.3001 110.1 23.6001L111.8 24.3001C112.2 23.6001 112.8 23.4001 113.5 23.4001C114.5 23.4001 115.4 24.0001 115.5 25.0001V25.1001C115.2 24.9001 114.4 24.6001 113.6 24.6001C111.8 24.6001 110 25.6001 110 27.4001C110 29.1001 111.5 30.2001 113.1 30.2001C114.4 30.2001 115 29.6001 115.5 29.0001H115.6V30.0001H117.4V25.2001C117.2 23.0001 115.5 21.7001 113.4 21.7001ZM111.7 27.5001C111.7 28.3001 112.6 28.6001 113.2 28.6001C114.2 28.6001 115.2 27.8001 115.4 26.6001C115.35 26.5799 115.3 26.5597 115.251 26.5397C114.815 26.3617 114.419 26.2001 113.7 26.2001C112.8 26.2001 111.7 26.5001 111.7 27.5001ZM123.7 22.0001L121.6 27.4001H121.5L119.3 22.0001H117.3L120.6 29.6001L118.7 33.8001H120.6L125.7 22.0001H123.7ZM108.8 30.0001H106.9V17.5001H108.8V30.0001Z" fill="black"/>
<path d="M10.3999 7.5C10.0999 7.8 9.8999 8.3 9.8999 8.9V31C9.8999 31.6 10.0999 32.1 10.3999 32.4L10.4999 32.5L22.8999 20.1V20V19.9L10.3999 7.5Z" fill="url(#paint0_linear_4236_37328)"/>
<path d="M26.9999 24.2998L22.8999 20.1998V19.9998V19.8998L26.9999 15.7998L27.0999 15.8998L31.9999 18.6998C33.3999 19.4998 33.3999 20.7998 31.9999 21.5998L26.9999 24.2998Z" fill="url(#paint1_linear_4236_37328)"/>
<path d="M27.0999 24.2L22.8999 20L10.3999 32.5C10.8999 33 11.5999 33 12.4999 32.6L27.0999 24.2Z" fill="url(#paint2_linear_4236_37328)"/>
<path d="M27.0999 15.7999L12.4999 7.49987C11.5999 6.99987 10.8999 7.09987 10.3999 7.59987L22.8999 20.0999L27.0999 15.7999Z" fill="url(#paint3_linear_4236_37328)"/>
<path opacity="0.2" d="M26.9999 24.0999L12.4999 32.2999C11.6999 32.7999 10.9999 32.6999 10.4999 32.2999L10.3999 32.3999L10.4999 32.4999C10.9999 32.8999 11.6999 32.9999 12.4999 32.4999L26.9999 24.0999Z" fill="black"/>
<path opacity="0.12" d="M10.3999 32.2999C10.0999 31.9999 9.8999 31.4999 9.8999 30.8999V30.9999C9.8999 31.5999 10.0999 32.0999 10.3999 32.3999V32.2999Z" fill="black"/>
<path opacity="0.12" d="M32 21.3L27 24.1L27.1 24.2L32 21.4C32.7 21 33 20.5 33 20C33 20.5 32.6 20.9 32 21.3Z" fill="black"/>
<path opacity="0.25" d="M12.5 7.59988L32 18.6999C32.6 19.0999 33 19.4999 33 19.9999C33 19.4999 32.7 18.9999 32 18.5999L12.5 7.49988C11.1 6.69988 10 7.39988 10 8.99988V9.09988C10 7.49988 11.1 6.79988 12.5 7.59988Z" fill="white"/>
<defs>
<linearGradient id="paint0_linear_4236_37328" x1="17.4362" y1="-7.42722" x2="-2.43153" y2="-2.05499" gradientUnits="userSpaceOnUse">
<stop stop-color="#00A0FF"/>
<stop offset="0.00657445" stop-color="#00A1FF"/>
<stop offset="0.2601" stop-color="#00BEFF"/>
<stop offset="0.5122" stop-color="#00D2FF"/>
<stop offset="0.7604" stop-color="#00DFFF"/>
<stop offset="1" stop-color="#00E3FF"/>
</linearGradient>
<linearGradient id="paint1_linear_4236_37328" x1="33.8343" y1="9.8695" x2="9.6374" y2="9.8695" gradientUnits="userSpaceOnUse">
<stop stop-color="#FFE000"/>
<stop offset="0.4087" stop-color="#FFBD00"/>
<stop offset="0.7754" stop-color="#FFA500"/>
<stop offset="1" stop-color="#FF9C00"/>
</linearGradient>
<linearGradient id="paint2_linear_4236_37328" x1="10.0827" y1="13.514" x2="-5.88274" y2="40.3184" gradientUnits="userSpaceOnUse">
<stop stop-color="#FF3A44"/>
<stop offset="1" stop-color="#C31162"/>
</linearGradient>
<linearGradient id="paint3_linear_4236_37328" x1="0.733765" y1="4.10985" x2="7.90069" y2="16.0677" gradientUnits="userSpaceOnUse">
<stop stop-color="#32A071"/>
<stop offset="0.0685" stop-color="#2DA771"/>
<stop offset="0.4762" stop-color="#15CF74"/>
<stop offset="0.8009" stop-color="#06E775"/>
<stop offset="1" stop-color="#00F076"/>
</linearGradient>
</defs>
</svg>
