<svg width="36" height="36" viewBox="0 0 36 36" fill="none" xmlns="http://www.w3.org/2000/svg">
<g clip-path="url(#clip0_7684_97818)">
<path d="M18.849 36H13.0785L16.0785 24H9.87897C9.27984 23.9998 8.68906 23.8594 8.15386 23.5901C7.61866 23.3208 7.15387 22.93 6.79663 22.449C6.43939 21.968 6.19961 21.4102 6.09644 20.82C5.99328 20.2298 6.02959 19.6236 6.20247 19.05L11.964 0H26.1645L21.6645 12H27.699C28.3856 12.0004 29.0592 12.1869 29.6483 12.5396C30.2373 12.8923 30.7198 13.398 31.0445 14.0029C31.3691 14.6079 31.5238 15.2895 31.492 15.9754C31.4602 16.6612 31.2432 17.3256 30.864 17.898L18.849 36Z" fill="#FDD835"/>
</g>
<defs>
<clipPath id="clip0_7684_97818">
<rect width="36" height="36" fill="white"/>
</clipPath>
</defs>
</svg>
