<svg width="24" height="24" viewBox="0 0 24 24" fill="none" xmlns="http://www.w3.org/2000/svg">
<path d="M19.0812 11.6796C19.2361 11.8651 19.2361 12.1349 19.0812 12.3204L18.1063 13.4882C17.852 13.7928 17.7288 14.1857 17.7636 14.5809L17.899 16.1205C17.9207 16.3676 17.758 16.5933 17.5166 16.6507L16.1558 16.9745C15.75 17.0711 15.4027 17.3323 15.1974 17.6954L14.4865 18.9524C14.3593 19.1773 14.0817 19.2682 13.8461 19.1622L12.6168 18.6092C12.2242 18.4326 11.7747 18.4332 11.3825 18.6108L10.1539 19.1673C9.91811 19.2741 9.6398 19.1833 9.51237 18.958L8.80263 17.703C8.59729 17.3399 8.25002 17.0787 7.84422 16.9821L6.48316 16.6583C6.24187 16.6008 6.07915 16.3752 6.10082 16.1282L6.23656 14.5807C6.27121 14.1856 6.14797 13.7928 5.8938 13.4883L4.91786 12.3193C4.76318 12.134 4.76294 11.8647 4.91729 11.6791L5.89558 10.503L5.51118 10.1833L5.89558 10.503C6.14863 10.1988 6.27122 9.80692 6.23665 9.41272L6.10103 7.86661C6.07931 7.61902 6.24276 7.39306 6.48471 7.33619L7.84101 7.01738C8.24848 6.9216 8.59739 6.65992 8.80344 6.29559L9.51353 5.04C9.64071 4.81512 9.91827 4.72416 10.1539 4.83015L11.3846 5.38381C11.776 5.55987 12.224 5.55987 12.6154 5.38381L13.845 4.83065C14.0808 4.72456 14.3587 4.81581 14.4857 5.04108L15.1972 6.30306C15.4024 6.66704 15.7501 6.92893 16.1566 7.02566L17.5166 7.34931C17.758 7.40673 17.9207 7.63242 17.899 7.87953L17.7636 9.41906C17.7288 9.81429 17.852 10.2072 18.1063 10.5118L19.0812 11.6796ZM9.52448 15.1802C10.1157 15.8011 11.1062 15.8011 11.6973 15.1801L15.7924 10.8784C16.2628 10.3842 16.2622 9.60773 15.7912 9.11422C15.2869 8.586 14.4435 8.58672 13.9402 9.11579L10.9735 12.2344C10.7764 12.4416 10.4459 12.4415 10.2488 12.2342L9.84891 11.8135C9.34577 11.2841 8.50211 11.2832 7.99783 11.8115C7.5268 12.3049 7.52629 13.0813 7.99667 13.5754L9.52448 15.1802Z" fill="#F5A623" stroke="#F5A623"/>
</svg>
