<svg width="12" height="11" viewBox="0 0 12 11" fill="none" xmlns="http://www.w3.org/2000/svg">
<path fill-rule="evenodd" clip-rule="evenodd" d="M3.53877 10.6666H9.12857C9.30116 10.6663 9.44088 10.5226 9.44088 10.3455V2.54653C9.44088 2.36918 9.30077 2.2254 9.12794 2.2254H8.74177V1.57287C8.74577 1.33893 8.66144 1.11247 8.50644 0.940885C8.35358 0.765139 8.13451 0.665254 7.90496 0.66664H4.76113C4.53141 0.665319 4.31217 0.765177 4.15903 0.940885C4.00434 1.11238 3.92025 1.33859 3.92432 1.57223V2.2254H3.53877C3.36594 2.2254 3.22583 2.36918 3.22583 2.54653V10.3455C3.22583 10.5229 3.36594 10.6666 3.53877 10.6666ZM8.81562 10.0244H3.85171V2.86767H4.23663C4.40947 2.86767 4.54958 2.7239 4.54958 2.54654V1.57159C4.54619 1.49888 4.57145 1.42782 4.61968 1.37442C4.65463 1.33174 4.70684 1.30804 4.76113 1.31019H7.90495C7.95908 1.30794 8.01114 1.33168 8.04578 1.37442C8.09439 1.42787 8.11989 1.49921 8.1165 1.57224V2.54654C8.1165 2.7239 8.25661 2.86767 8.42945 2.86767H8.81562V10.0244Z" fill="#424242"/>
<path fill-rule="evenodd" clip-rule="evenodd" d="M5.35837 3.25919H7.30819C7.38899 3.25919 7.46648 3.22394 7.52362 3.1612C7.58075 3.09845 7.61285 3.01335 7.61285 2.92462V2.11228C7.61285 1.9275 7.47645 1.77771 7.30819 1.77771H5.35837C5.19011 1.77771 5.05371 1.9275 5.05371 2.11228V2.92462C5.05371 3.1094 5.19011 3.25919 5.35837 3.25919ZM7.00354 2.59007H5.66304V2.44687H7.00354V2.59007Z" fill="#424242"/>
<path fill-rule="evenodd" clip-rule="evenodd" d="M2.17986 10.2962H2.51872C2.60907 10.2969 2.69595 10.2645 2.76009 10.2063C2.82423 10.1481 2.8603 10.0689 2.8603 9.98623V2.45805C2.8603 2.28685 2.70858 2.14807 2.52144 2.14807H2.18258C1.75265 2.14944 1.34838 2.33538 1.09077 2.65024C0.808526 2.96768 0.658445 3.36637 0.667191 3.77547V8.66819C0.65752 9.0772 0.806637 9.4761 1.08806 9.79404C1.34553 10.1091 1.74989 10.295 2.17986 10.2962ZM1.61533 3.04206C1.74491 2.87351 1.95467 2.7717 2.17988 2.76803V9.67563C1.95464 9.67207 1.74483 9.57023 1.61533 9.40161C1.43176 9.19478 1.33555 8.93449 1.34425 8.6682V3.77547C1.33555 3.50917 1.43176 3.24889 1.61533 3.04206Z" fill="#424242"/>
<path fill-rule="evenodd" clip-rule="evenodd" d="M10.1456 10.2962H10.4846C10.9148 10.2949 11.3194 10.1087 11.5768 9.79343C11.8587 9.4758 12.0085 9.07719 11.9998 8.6682V3.77547C12.0085 3.36648 11.8587 2.96787 11.5768 2.65024C11.3191 2.33538 10.9147 2.14944 10.4846 2.14807H10.1456C9.95841 2.14807 9.80664 2.28685 9.80664 2.45805V9.98624C9.80664 10.1574 9.95841 10.2962 10.1456 10.2962ZM10.4846 9.67626V2.76804H10.4873C10.7117 2.77229 10.9204 2.87406 11.0493 3.04206C11.2329 3.24894 11.3291 3.50919 11.3205 3.77547V8.66882C11.3291 8.93511 11.2329 9.19535 11.0493 9.40224C10.9199 9.57094 10.7099 9.6728 10.4846 9.67626Z" fill="#424242"/>
</svg>
