<svg width="334" height="64" viewBox="0 0 334 64" fill="none" xmlns="http://www.w3.org/2000/svg">
<g filter="url(#filter0_dd_4916_8424)">
<path fill-rule="evenodd" clip-rule="evenodd" d="M3 7C3 4.79086 4.79086 3 7 3H225.209C226.349 3 227.434 3.4859 228.193 4.33576L232.017 8.61838C233.608 10.3995 236.394 10.3994 237.985 8.61802L241.807 4.33612C242.566 3.48604 243.652 3 244.791 3H327C329.209 3 331 4.79086 331 7V55C331 57.2091 329.209 59 327 59H244.457C243.516 59 242.605 58.6682 241.884 58.0628L237.573 54.4411C236.085 53.1916 233.915 53.1916 232.427 54.4411L228.116 58.0628C227.395 58.6682 226.484 59 225.543 59H7C4.79086 59 3 57.2091 3 55V7Z" fill="#FEFEFE" stroke="#E0E0E0"/>
<path fill-rule="evenodd" clip-rule="evenodd" d="M41.4216 30.3355L39.8443 28.5385C39.6632 28.3321 39.5749 28.0603 39.6001 27.7868L39.8199 25.4081C39.8661 24.9085 39.5349 24.4521 39.0457 24.341L36.7093 23.8103C36.442 23.7495 36.2113 23.5817 36.0712 23.346L34.8487 21.2892C34.5923 20.8578 34.0557 20.6832 33.5945 20.8813L31.3951 21.8257C31.1432 21.9339 30.8579 21.9339 30.606 21.8257L28.4066 20.8813C27.9454 20.6832 27.4088 20.8578 27.1524 21.2892L25.9308 23.3447C25.7902 23.5812 25.5585 23.7493 25.2901 23.8095L22.9583 24.3327C22.4678 24.4428 22.1352 24.8999 22.1814 25.4005L22.4011 27.7779C22.4263 28.0507 22.3385 28.3219 22.1581 28.5282L20.5773 30.3357C20.2472 30.7131 20.2477 31.2767 20.5785 31.6536L22.1569 33.452C22.338 33.6583 22.4263 33.93 22.4011 34.2034L22.181 36.5924C22.135 37.0919 22.4661 37.5482 22.9553 37.6593L25.2918 38.19C25.5592 38.2508 25.7899 38.4186 25.93 38.6543L27.1513 40.7092C27.4082 41.1415 27.9462 41.3157 28.4078 41.1162L30.6051 40.1662C30.8575 40.057 31.1438 40.0567 31.3965 40.1652L33.5945 41.109C34.0557 41.3071 34.5923 41.1326 34.8487 40.7011L36.0712 38.6443C36.2113 38.4086 36.442 38.2408 36.7093 38.18L39.0457 37.6493C39.5349 37.5382 39.8661 37.0818 39.8199 36.5822L39.6001 34.2035C39.5749 33.9301 39.6632 33.6582 39.8443 33.4519L41.4216 31.6548C41.7528 31.2774 41.7528 30.7129 41.4216 30.3355ZM28.5005 30.9952C29.3289 30.9952 30.0005 30.3236 30.0005 29.4952C30.0005 28.6667 29.3289 27.9952 28.5005 27.9952C27.6721 27.9952 27.0005 28.6667 27.0005 29.4952C27.0005 30.3236 27.6721 30.9952 28.5005 30.9952ZM35.0005 33.4952C35.0005 34.3236 34.3289 34.9952 33.5005 34.9952C32.6721 34.9952 32.0005 34.3236 32.0005 33.4952C32.0005 32.6667 32.6721 31.9952 33.5005 31.9952C34.3289 31.9952 35.0005 32.6667 35.0005 33.4952ZM34.8897 27.6061C34.4992 27.2155 33.866 27.2155 33.4755 27.6061L27.1115 33.97C26.721 34.3605 26.721 34.9937 27.1115 35.3842C27.5021 35.7748 28.1352 35.7748 28.5258 35.3842L34.8897 29.0203C35.2802 28.6298 35.2802 27.9966 34.8897 27.6061Z" fill="#323C9F"/>
<path d="M52.26 35V26.6H55.536C56.272 26.6 56.9 26.716 57.42 26.948C57.94 27.18 58.34 27.516 58.62 27.956C58.9 28.396 59.04 28.92 59.04 29.528C59.04 30.136 58.9 30.66 58.62 31.1C58.34 31.532 57.94 31.868 57.42 32.108C56.9 32.34 56.272 32.456 55.536 32.456H52.92L53.46 31.892V35H52.26ZM53.46 32.012L52.92 31.412H55.5C56.268 31.412 56.848 31.248 57.24 30.92C57.64 30.592 57.84 30.128 57.84 29.528C57.84 28.928 57.64 28.464 57.24 28.136C56.848 27.808 56.268 27.644 55.5 27.644H52.92L53.46 27.044V32.012ZM63.4282 35.072C62.8842 35.072 62.4042 34.972 61.9882 34.772C61.5802 34.572 61.2602 34.268 61.0282 33.86C60.8042 33.444 60.6922 32.924 60.6922 32.3V28.64H61.8442V32.168C61.8442 32.792 61.9922 33.26 62.2882 33.572C62.5922 33.884 63.0162 34.04 63.5602 34.04C63.9602 34.04 64.3082 33.96 64.6042 33.8C64.9002 33.632 65.1282 33.392 65.2882 33.08C65.4482 32.76 65.5282 32.376 65.5282 31.928V28.64H66.6802V35H65.5882V33.284L65.7682 33.74C65.5602 34.164 65.2482 34.492 64.8322 34.724C64.4162 34.956 63.9482 35.072 63.4282 35.072ZM72.2693 28.58C72.7893 28.58 73.2453 28.68 73.6373 28.88C74.0373 29.08 74.3493 29.384 74.5733 29.792C74.7973 30.2 74.9093 30.716 74.9093 31.34V35H73.7573V31.472C73.7573 30.856 73.6053 30.392 73.3013 30.08C73.0053 29.768 72.5853 29.612 72.0413 29.612C71.6333 29.612 71.2773 29.692 70.9733 29.852C70.6693 30.012 70.4333 30.248 70.2653 30.56C70.1053 30.872 70.0253 31.26 70.0253 31.724V35H68.8733V28.64H69.9773V30.356L69.7973 29.9C70.0053 29.484 70.3253 29.16 70.7573 28.928C71.1893 28.696 71.6933 28.58 72.2693 28.58ZM77.2 37.4C76.896 37.4 76.6 37.348 76.312 37.244C76.024 37.148 75.776 37.004 75.568 36.812L76.06 35.948C76.22 36.1 76.396 36.216 76.588 36.296C76.78 36.376 76.984 36.416 77.2 36.416C77.48 36.416 77.712 36.344 77.896 36.2C78.08 36.056 78.252 35.8 78.412 35.432L78.808 34.556L78.928 34.412L81.424 28.64H82.552L79.468 35.636C79.284 36.084 79.076 36.436 78.844 36.692C78.62 36.948 78.372 37.128 78.1 37.232C77.828 37.344 77.528 37.4 77.2 37.4ZM78.712 35.204L75.808 28.64H77.008L79.48 34.304L78.712 35.204ZM87.3759 35V33.656L87.3159 33.404V31.112C87.3159 30.624 87.1719 30.248 86.8839 29.984C86.6039 29.712 86.1799 29.576 85.6119 29.576C85.2359 29.576 84.8679 29.64 84.5079 29.768C84.1479 29.888 83.8439 30.052 83.5959 30.26L83.1159 29.396C83.4439 29.132 83.8359 28.932 84.2919 28.796C84.7559 28.652 85.2399 28.58 85.7439 28.58C86.6159 28.58 87.2879 28.792 87.7599 29.216C88.2319 29.64 88.4679 30.288 88.4679 31.16V35H87.3759ZM85.2879 35.072C84.8159 35.072 84.3999 34.992 84.0399 34.832C83.6879 34.672 83.4159 34.452 83.2239 34.172C83.0319 33.884 82.9359 33.56 82.9359 33.2C82.9359 32.856 83.0159 32.544 83.1759 32.264C83.3439 31.984 83.6119 31.76 83.9799 31.592C84.3559 31.424 84.8599 31.34 85.4919 31.34H87.5079V32.168H85.5399C84.9639 32.168 84.5759 32.264 84.3759 32.456C84.1759 32.648 84.0759 32.88 84.0759 33.152C84.0759 33.464 84.1999 33.716 84.4479 33.908C84.6959 34.092 85.0399 34.184 85.4799 34.184C85.9119 34.184 86.2879 34.088 86.6079 33.896C86.9359 33.704 87.1719 33.424 87.3159 33.056L87.5439 33.848C87.3919 34.224 87.1239 34.524 86.7399 34.748C86.3559 34.964 85.8719 35.072 85.2879 35.072ZM94.7585 33.464L94.7825 31.988L98.4425 28.64H99.8345L97.0265 31.4L96.4025 31.928L94.7585 33.464ZM93.8225 35V26.096H94.9745V35H93.8225ZM98.6825 35L96.1865 31.904L96.9305 30.98L100.098 35H98.6825ZM103.683 35.072C103.043 35.072 102.475 34.932 101.979 34.652C101.483 34.372 101.091 33.988 100.803 33.5C100.515 33.004 100.371 32.444 100.371 31.82C100.371 31.188 100.515 30.628 100.803 30.14C101.091 29.652 101.483 29.272 101.979 29C102.475 28.72 103.043 28.58 103.683 28.58C104.315 28.58 104.879 28.72 105.375 29C105.879 29.272 106.271 29.652 106.551 30.14C106.839 30.62 106.983 31.18 106.983 31.82C106.983 32.452 106.839 33.012 106.551 33.5C106.271 33.988 105.879 34.372 105.375 34.652C104.879 34.932 104.315 35.072 103.683 35.072ZM103.683 34.064C104.091 34.064 104.455 33.972 104.775 33.788C105.103 33.604 105.359 33.344 105.543 33.008C105.727 32.664 105.819 32.268 105.819 31.82C105.819 31.364 105.727 30.972 105.543 30.644C105.359 30.308 105.103 30.048 104.775 29.864C104.455 29.68 104.091 29.588 103.683 29.588C103.275 29.588 102.911 29.68 102.591 29.864C102.271 30.048 102.015 30.308 101.823 30.644C101.631 30.972 101.535 31.364 101.535 31.82C101.535 32.268 101.631 32.664 101.823 33.008C102.015 33.344 102.271 33.604 102.591 33.788C102.911 33.972 103.275 34.064 103.683 34.064ZM111.204 35.072C110.588 35.072 110.036 34.936 109.548 34.664C109.068 34.392 108.688 34.012 108.408 33.524C108.128 33.036 107.988 32.468 107.988 31.82C107.988 31.172 108.128 30.608 108.408 30.128C108.688 29.64 109.068 29.26 109.548 28.988C110.036 28.716 110.588 28.58 111.204 28.58C111.74 28.58 112.224 28.7 112.656 28.94C113.088 29.18 113.432 29.54 113.688 30.02C113.952 30.5 114.084 31.1 114.084 31.82C114.084 32.54 113.956 33.14 113.7 33.62C113.452 34.1 113.112 34.464 112.68 34.712C112.248 34.952 111.756 35.072 111.204 35.072ZM111.3 34.064C111.7 34.064 112.06 33.972 112.38 33.788C112.708 33.604 112.964 33.344 113.148 33.008C113.34 32.664 113.436 32.268 113.436 31.82C113.436 31.364 113.34 30.972 113.148 30.644C112.964 30.308 112.708 30.048 112.38 29.864C112.06 29.68 111.7 29.588 111.3 29.588C110.892 29.588 110.528 29.68 110.208 29.864C109.888 30.048 109.632 30.308 109.44 30.644C109.248 30.972 109.152 31.364 109.152 31.82C109.152 32.268 109.248 32.664 109.44 33.008C109.632 33.344 109.888 33.604 110.208 33.788C110.528 33.972 110.892 34.064 111.3 34.064ZM113.472 35V33.284L113.544 31.808L113.424 30.332V26.096H114.576V35H113.472ZM119.588 35.072C118.908 35.072 118.308 34.932 117.788 34.652C117.276 34.372 116.876 33.988 116.588 33.5C116.308 33.012 116.168 32.452 116.168 31.82C116.168 31.188 116.304 30.628 116.576 30.14C116.856 29.652 117.236 29.272 117.716 29C118.204 28.72 118.752 28.58 119.36 28.58C119.976 28.58 120.52 28.716 120.992 28.988C121.464 29.26 121.832 29.644 122.096 30.14C122.368 30.628 122.504 31.2 122.504 31.856C122.504 31.904 122.5 31.96 122.492 32.024C122.492 32.088 122.488 32.148 122.48 32.204H117.068V31.376H121.88L121.412 31.664C121.42 31.256 121.336 30.892 121.16 30.572C120.984 30.252 120.74 30.004 120.428 29.828C120.124 29.644 119.768 29.552 119.36 29.552C118.96 29.552 118.604 29.644 118.292 29.828C117.98 30.004 117.736 30.256 117.56 30.584C117.384 30.904 117.296 31.272 117.296 31.688V31.88C117.296 32.304 117.392 32.684 117.584 33.02C117.784 33.348 118.06 33.604 118.412 33.788C118.764 33.972 119.168 34.064 119.624 34.064C120 34.064 120.34 34 120.644 33.872C120.956 33.744 121.228 33.552 121.46 33.296L122.096 34.04C121.808 34.376 121.448 34.632 121.016 34.808C120.592 34.984 120.116 35.072 119.588 35.072ZM130.698 35.072C130.17 35.072 129.686 34.952 129.246 34.712C128.814 34.464 128.466 34.1 128.202 33.62C127.946 33.14 127.818 32.54 127.818 31.82C127.818 31.1 127.942 30.5 128.19 30.02C128.446 29.54 128.79 29.18 129.222 28.94C129.662 28.7 130.154 28.58 130.698 28.58C131.322 28.58 131.874 28.716 132.354 28.988C132.834 29.26 133.214 29.64 133.494 30.128C133.774 30.608 133.914 31.172 133.914 31.82C133.914 32.468 133.774 33.036 133.494 33.524C133.214 34.012 132.834 34.392 132.354 34.664C131.874 34.936 131.322 35.072 130.698 35.072ZM127.326 37.328V28.64H128.43V30.356L128.358 31.832L128.478 33.308V37.328H127.326ZM130.602 34.064C131.01 34.064 131.374 33.972 131.694 33.788C132.022 33.604 132.278 33.344 132.462 33.008C132.654 32.664 132.75 32.268 132.75 31.82C132.75 31.364 132.654 30.972 132.462 30.644C132.278 30.308 132.022 30.048 131.694 29.864C131.374 29.68 131.01 29.588 130.602 29.588C130.202 29.588 129.838 29.68 129.51 29.864C129.19 30.048 128.934 30.308 128.742 30.644C128.558 30.972 128.466 31.364 128.466 31.82C128.466 32.268 128.558 32.664 128.742 33.008C128.934 33.344 129.19 33.604 129.51 33.788C129.838 33.972 130.202 34.064 130.602 34.064ZM135.506 35V28.64H136.61V30.368L136.502 29.936C136.678 29.496 136.974 29.16 137.39 28.928C137.806 28.696 138.318 28.58 138.926 28.58V29.696C138.878 29.688 138.83 29.684 138.782 29.684C138.742 29.684 138.702 29.684 138.662 29.684C138.046 29.684 137.558 29.868 137.198 30.236C136.838 30.604 136.658 31.136 136.658 31.832V35H135.506ZM143.011 35.072C142.371 35.072 141.803 34.932 141.307 34.652C140.811 34.372 140.419 33.988 140.131 33.5C139.843 33.004 139.699 32.444 139.699 31.82C139.699 31.188 139.843 30.628 140.131 30.14C140.419 29.652 140.811 29.272 141.307 29C141.803 28.72 142.371 28.58 143.011 28.58C143.643 28.58 144.207 28.72 144.703 29C145.207 29.272 145.599 29.652 145.879 30.14C146.167 30.62 146.311 31.18 146.311 31.82C146.311 32.452 146.167 33.012 145.879 33.5C145.599 33.988 145.207 34.372 144.703 34.652C144.207 34.932 143.643 35.072 143.011 35.072ZM143.011 34.064C143.419 34.064 143.783 33.972 144.103 33.788C144.431 33.604 144.687 33.344 144.871 33.008C145.055 32.664 145.147 32.268 145.147 31.82C145.147 31.364 145.055 30.972 144.871 30.644C144.687 30.308 144.431 30.048 144.103 29.864C143.783 29.68 143.419 29.588 143.011 29.588C142.603 29.588 142.239 29.68 141.919 29.864C141.599 30.048 141.343 30.308 141.151 30.644C140.959 30.972 140.863 31.364 140.863 31.82C140.863 32.268 140.959 32.664 141.151 33.008C141.343 33.344 141.599 33.604 141.919 33.788C142.239 33.972 142.603 34.064 143.011 34.064ZM155.861 28.58C156.373 28.58 156.825 28.68 157.217 28.88C157.609 29.08 157.913 29.384 158.129 29.792C158.353 30.2 158.465 30.716 158.465 31.34V35H157.313V31.472C157.313 30.856 157.169 30.392 156.881 30.08C156.593 29.768 156.189 29.612 155.669 29.612C155.285 29.612 154.949 29.692 154.661 29.852C154.373 30.012 154.149 30.248 153.989 30.56C153.837 30.872 153.761 31.26 153.761 31.724V35H152.609V31.472C152.609 30.856 152.465 30.392 152.177 30.08C151.897 29.768 151.493 29.612 150.965 29.612C150.589 29.612 150.257 29.692 149.969 29.852C149.681 30.012 149.457 30.248 149.297 30.56C149.137 30.872 149.057 31.26 149.057 31.724V35H147.905V28.64H149.009V30.332L148.829 29.9C149.029 29.484 149.337 29.16 149.753 28.928C150.169 28.696 150.653 28.58 151.205 28.58C151.813 28.58 152.337 28.732 152.777 29.036C153.217 29.332 153.505 29.784 153.641 30.392L153.173 30.2C153.365 29.712 153.701 29.32 154.181 29.024C154.661 28.728 155.221 28.58 155.861 28.58ZM163.308 35.072C162.668 35.072 162.1 34.932 161.604 34.652C161.108 34.372 160.716 33.988 160.428 33.5C160.14 33.004 159.996 32.444 159.996 31.82C159.996 31.188 160.14 30.628 160.428 30.14C160.716 29.652 161.108 29.272 161.604 29C162.1 28.72 162.668 28.58 163.308 28.58C163.94 28.58 164.504 28.72 165 29C165.504 29.272 165.896 29.652 166.176 30.14C166.464 30.62 166.608 31.18 166.608 31.82C166.608 32.452 166.464 33.012 166.176 33.5C165.896 33.988 165.504 34.372 165 34.652C164.504 34.932 163.94 35.072 163.308 35.072ZM163.308 34.064C163.716 34.064 164.08 33.972 164.4 33.788C164.728 33.604 164.984 33.344 165.168 33.008C165.352 32.664 165.444 32.268 165.444 31.82C165.444 31.364 165.352 30.972 165.168 30.644C164.984 30.308 164.728 30.048 164.4 29.864C164.08 29.68 163.716 29.588 163.308 29.588C162.9 29.588 162.536 29.68 162.216 29.864C161.896 30.048 161.64 30.308 161.448 30.644C161.256 30.972 161.16 31.364 161.16 31.82C161.16 32.268 161.256 32.664 161.448 33.008C161.64 33.344 161.896 33.604 162.216 33.788C162.536 33.972 162.9 34.064 163.308 34.064ZM169.283 32.348C169.283 32.036 169.335 31.764 169.439 31.532C169.543 31.3 169.671 31.092 169.823 30.908C169.983 30.724 170.155 30.556 170.339 30.404C170.523 30.244 170.695 30.088 170.855 29.936C171.015 29.776 171.143 29.608 171.239 29.432C171.343 29.256 171.395 29.052 171.395 28.82C171.395 28.436 171.243 28.124 170.939 27.884C170.635 27.644 170.215 27.524 169.679 27.524C169.199 27.524 168.783 27.604 168.431 27.764C168.079 27.924 167.779 28.16 167.531 28.472L166.655 27.848C166.991 27.424 167.419 27.096 167.939 26.864C168.459 26.624 169.067 26.504 169.763 26.504C170.339 26.504 170.839 26.592 171.263 26.768C171.687 26.936 172.015 27.18 172.247 27.5C172.487 27.812 172.607 28.192 172.607 28.64C172.607 28.976 172.555 29.264 172.451 29.504C172.347 29.744 172.215 29.956 172.055 30.14C171.895 30.324 171.723 30.496 171.539 30.656C171.363 30.816 171.195 30.976 171.035 31.136C170.875 31.296 170.743 31.472 170.639 31.664C170.535 31.856 170.483 32.084 170.483 32.348H169.283ZM169.895 35.072C169.671 35.072 169.483 34.996 169.331 34.844C169.187 34.692 169.115 34.512 169.115 34.304C169.115 34.08 169.187 33.896 169.331 33.752C169.483 33.608 169.671 33.536 169.895 33.536C170.119 33.536 170.303 33.608 170.447 33.752C170.591 33.896 170.663 34.08 170.663 34.304C170.663 34.512 170.591 34.692 170.447 34.844C170.303 34.996 170.119 35.072 169.895 35.072Z" fill="#323C9F"/>
<path d="M262.293 35V27.92H259.509V26.6H266.637V27.92H263.853V35H262.293ZM266.198 35L269.978 26.6H271.514L275.306 35H273.674L270.422 27.428H271.046L267.806 35H266.198ZM267.938 33.056L268.358 31.832H272.894L273.314 33.056H267.938ZM276.374 35V26.6H277.658L281.33 32.732H280.658L284.27 26.6H285.554L285.566 35H284.09L284.078 28.916H284.39L281.318 34.04H280.622L277.502 28.916H277.862V35H276.374ZM287.835 35V26.6H291.771C292.779 26.6 293.547 26.8 294.075 27.2C294.603 27.592 294.867 28.12 294.867 28.784C294.867 29.232 294.763 29.616 294.555 29.936C294.347 30.248 294.067 30.492 293.715 30.668C293.371 30.836 292.995 30.92 292.587 30.92L292.803 30.488C293.275 30.488 293.699 30.576 294.075 30.752C294.451 30.92 294.747 31.168 294.963 31.496C295.187 31.824 295.299 32.232 295.299 32.72C295.299 33.44 295.023 34 294.471 34.4C293.919 34.8 293.099 35 292.011 35H287.835ZM289.395 33.776H291.915C292.499 33.776 292.947 33.68 293.259 33.488C293.571 33.296 293.727 32.988 293.727 32.564C293.727 32.148 293.571 31.844 293.259 31.652C292.947 31.452 292.499 31.352 291.915 31.352H289.275V30.14H291.603C292.147 30.14 292.563 30.044 292.851 29.852C293.147 29.66 293.295 29.372 293.295 28.988C293.295 28.596 293.147 28.304 292.851 28.112C292.563 27.92 292.147 27.824 291.603 27.824H289.395V33.776ZM295.776 35L299.556 26.6H301.092L304.884 35H303.252L300 27.428H300.624L297.384 35H295.776ZM297.516 33.056L297.936 31.832H302.472L302.892 33.056H297.516ZM311.856 26.6H313.416V35H311.856V26.6ZM307.512 35H305.952V26.6H307.512V35ZM311.976 31.4H307.38V30.068H311.976V31.4Z" fill="#323C9F"/>
</g>
<defs>
<filter id="filter0_dd_4916_8424" x="0.5" y="0.5" width="333" height="63" filterUnits="userSpaceOnUse" color-interpolation-filters="sRGB">
<feFlood flood-opacity="0" result="BackgroundImageFix"/>
<feColorMatrix in="SourceAlpha" type="matrix" values="0 0 0 0 0 0 0 0 0 0 0 0 0 0 0 0 0 0 127 0" result="hardAlpha"/>
<feOffset dy="2"/>
<feGaussianBlur stdDeviation="1"/>
<feColorMatrix type="matrix" values="0 0 0 0 0 0 0 0 0 0 0 0 0 0 0 0 0 0 0.103884 0"/>
<feBlend mode="normal" in2="BackgroundImageFix" result="effect1_dropShadow_4916_8424"/>
<feColorMatrix in="SourceAlpha" type="matrix" values="0 0 0 0 0 0 0 0 0 0 0 0 0 0 0 0 0 0 127 0" result="hardAlpha"/>
<feOffset/>
<feGaussianBlur stdDeviation="1"/>
<feColorMatrix type="matrix" values="0 0 0 0 0 0 0 0 0 0 0 0 0 0 0 0 0 0 0.101317 0"/>
<feBlend mode="normal" in2="effect1_dropShadow_4916_8424" result="effect2_dropShadow_4916_8424"/>
<feBlend mode="normal" in="SourceGraphic" in2="effect2_dropShadow_4916_8424" result="shape"/>
</filter>
</defs>
</svg>
