<svg width="354" height="52" viewBox="0 0 354 52" fill="none" xmlns="http://www.w3.org/2000/svg">
<path fill-rule="evenodd" clip-rule="evenodd" d="M1 5C1 2.79086 2.79086 1 5 1H239.816C240.828 1 241.802 1.38357 242.542 2.0734L247.25 6.45919C248.786 7.89052 251.167 7.89038 252.703 6.45886L257.409 2.07373C258.149 1.38369 259.124 1 260.136 1H349C351.209 1 353 2.79086 353 5V47C353 49.2091 351.209 51 349 51H259.82C259.001 51 258.201 50.7482 257.529 50.2787L252.267 46.6013C250.891 45.6396 249.06 45.6396 247.684 46.6013L242.422 50.2787C241.751 50.7482 240.951 51 240.131 51H5C2.79086 51 1 49.2091 1 47V5Z" fill="#FEFEFE" stroke="#E0E0E0"/>
</svg>
