<svg width="16" height="16" viewBox="0 0 16 16" fill="none" xmlns="http://www.w3.org/2000/svg">
<path fill-rule="evenodd" clip-rule="evenodd" d="M5.53951 12.6666H11.1293C11.3019 12.6663 11.4416 12.5226 11.4416 12.3455V4.54653C11.4416 4.36918 11.3015 4.2254 11.1287 4.2254H10.7425V3.57287C10.7465 3.33893 10.6622 3.11247 10.5072 2.94089C10.3543 2.76514 10.1352 2.66525 9.90569 2.66664H6.76186C6.53214 2.66532 6.3129 2.76518 6.15976 2.94089C6.00507 3.11238 5.92098 3.33859 5.92505 3.57223V4.2254H5.53951C5.36667 4.2254 5.22656 4.36918 5.22656 4.54653V12.3455C5.22656 12.5229 5.36667 12.6666 5.53951 12.6666ZM10.8164 12.0244H5.85244V4.86767H6.23736C6.4102 4.86767 6.55031 4.7239 6.55031 4.54654V3.57159C6.54692 3.49888 6.57218 3.42782 6.62041 3.37442C6.65536 3.33174 6.70757 3.30804 6.76186 3.31019H9.90569C9.95981 3.30794 10.0119 3.33168 10.0465 3.37442C10.0951 3.42787 10.1206 3.49921 10.1172 3.57224V4.54654C10.1172 4.7239 10.2573 4.86767 10.4302 4.86767H10.8164V12.0244Z" fill="#424242"/>
<path fill-rule="evenodd" clip-rule="evenodd" d="M7.35837 5.25919H9.30819C9.38899 5.25919 9.46648 5.22394 9.52362 5.1612C9.58075 5.09845 9.61285 5.01335 9.61285 4.92462V4.11228C9.61285 3.9275 9.47645 3.77771 9.30819 3.77771H7.35837C7.19011 3.77771 7.05371 3.9275 7.05371 4.11228V4.92462C7.05371 5.1094 7.19011 5.25919 7.35837 5.25919ZM9.00354 4.59007H7.66304V4.44687H9.00354V4.59007Z" fill="#424242"/>
<path fill-rule="evenodd" clip-rule="evenodd" d="M4.18011 12.2962H4.51897C4.60931 12.2969 4.6962 12.2645 4.76033 12.2063C4.82447 12.1481 4.86054 12.0689 4.86054 11.9862V4.45805C4.86054 4.28685 4.70883 4.14807 4.52168 4.14807H4.18282C3.7529 4.14944 3.34862 4.33538 3.09101 4.65024C2.80877 4.96768 2.65869 5.36637 2.66743 5.77547V10.6682C2.65776 11.0772 2.80688 11.4761 3.0883 11.794C3.34577 12.1091 3.75014 12.295 4.18011 12.2962ZM3.61558 5.04206C3.74515 4.87351 3.95491 4.7717 4.18012 4.76803V11.6756C3.95488 11.6721 3.74508 11.5702 3.61558 11.4016C3.43201 11.1948 3.3358 10.9345 3.34449 10.6682V5.77547C3.3358 5.50917 3.43201 5.24889 3.61558 5.04206Z" fill="#424242"/>
<path fill-rule="evenodd" clip-rule="evenodd" d="M12.1456 12.2962H12.4846C12.9148 12.2949 13.3194 12.1087 13.5768 11.7934C13.8587 11.4758 14.0085 11.0772 13.9998 10.6682V5.77547C14.0085 5.36648 13.8587 4.96787 13.5768 4.65024C13.3191 4.33538 12.9147 4.14944 12.4846 4.14807H12.1456C11.9584 4.14807 11.8066 4.28685 11.8066 4.45805V11.9862C11.8066 12.1574 11.9584 12.2962 12.1456 12.2962ZM12.4846 11.6763V4.76804H12.4873C12.7117 4.77229 12.9204 4.87406 13.0493 5.04206C13.2329 5.24894 13.3291 5.50919 13.3205 5.77547V10.6688C13.3291 10.9351 13.2329 11.1954 13.0493 11.4022C12.9199 11.5709 12.7099 11.6728 12.4846 11.6763Z" fill="#424242"/>
</svg>
