<svg width="48" height="48" viewBox="0 0 48 48" fill="none" xmlns="http://www.w3.org/2000/svg">
<path d="M23.891 23.3155C20.1067 23.3155 17.0479 20.2008 17.0479 16.3916V9.92395C17.0479 6.11479 20.1263 3 23.891 3C27.6753 3 30.7341 6.11479 30.7341 9.92395V16.3718C30.7537 20.2008 27.6753 23.3155 23.891 23.3155ZM23.891 4.05149C20.6949 4.05149 18.0871 6.69013 18.0871 9.92395V16.3718C18.0871 19.6056 20.6949 22.2442 23.891 22.2442C27.0871 22.2442 29.6949 19.6056 29.6949 16.3718V9.92395C29.6949 6.69013 27.1067 4.05149 23.891 4.05149Z" fill="#214695"/>
<path d="M37.6944 22.5418L28.3219 44.9802H8.96891C8.04734 44.9802 7.38068 44.1469 7.51793 43.2541L32.4591 13.6934H35.4199C36.0277 13.6934 36.5572 14.1497 36.6356 14.7647L37.6944 22.5418Z" fill="#E94225"/>
<path d="M39.0281 45H28.3223L37.6948 22.5418L40.4791 43.1748C40.6752 44.1072 39.9693 45 39.0281 45Z" fill="#F6882F"/>
<path d="M23.5763 13.6934L9.79199 26.3708L11.3606 14.7647C11.4391 14.1497 11.9685 13.6934 12.5763 13.6934H23.5763Z" fill="#FBD602"/>
<path d="M32.4588 13.6934L7.51758 43.274C7.51758 43.2541 7.51758 43.2144 7.53719 43.1946L9.79209 26.351L23.5764 13.6934H32.4588Z" fill="#3F9043"/>
<path d="M33.5371 13.6934L14.0469 35.3779L31.4783 13.6934H33.5371Z" fill="#214695"/>
<path d="M9.98807 24.8828L18.3018 18.5342L9.79199 26.3509L9.98807 24.8828Z" fill="#214695"/>
<path d="M19.9883 45L30.302 31.3306C30.8902 30.537 32.1255 31.2711 31.7138 32.1837L26.0667 45H19.9883Z" fill="#F6882F"/>
<path d="M34.4205 27.3232C34.4205 26.6487 33.8911 26.113 33.2244 26.113C32.5577 26.113 32.0283 26.6487 32.0283 27.3232C32.0283 27.9978 32.5577 28.5334 33.2244 28.5334C33.8715 28.5334 34.4205 27.9779 34.4205 27.3232Z" fill="#F6882F"/>
</svg>
