<svg width="48" height="48" viewBox="0 0 48 48" fill="none" xmlns="http://www.w3.org/2000/svg">
<path d="M17.5402 44.7454C18.6823 44.6048 19.4942 43.5649 19.3536 42.4228C19.213 41.2806 18.1731 40.4687 17.0309 40.6093C15.8888 40.75 15.0769 41.7899 15.2175 42.932C15.3581 44.0742 16.398 44.8861 17.5402 44.7454Z" fill="#22407A"/>
<path d="M32.3322 42.173C32.6173 43.2916 31.9374 44.4321 30.8188 44.6953C29.7002 44.9805 28.5596 44.3005 28.2964 43.1819C28.0113 42.0633 28.6912 40.9228 29.8098 40.6596C30.9065 40.3745 32.0471 41.0544 32.3322 42.173Z" fill="#22407A"/>
<path d="M26.8274 15.8749H20.9712C19.9184 15.8749 19.041 15.0195 19.041 13.9448V5.23718C19.041 4.18438 19.8964 3.30704 20.9712 3.30704H26.8274C27.8802 3.30704 28.7575 4.16245 28.7575 5.23718V13.9667C28.7575 15.0195 27.8802 15.8749 26.8274 15.8749ZM20.9712 3.98698C20.2693 3.98698 19.721 4.55725 19.721 5.23718V13.9667C19.721 14.6686 20.2912 15.2169 20.9712 15.2169H26.8274C27.5073 15.2169 28.0776 14.6466 28.0776 13.9667V5.23718C28.0776 4.53532 27.5073 3.98698 26.8274 3.98698H20.9712Z" fill="#22407A"/>
<path d="M26.3666 3H21.5851V4.29407H26.3666V3Z" fill="#22407A"/>
<path d="M35.5126 14.6466V25.8327L23.537 42.6775H13.6231C12.7238 42.6775 12 41.9537 12 41.0545V36.6678L31.0821 13.0236H33.8895C34.7888 13.0236 35.5126 13.7474 35.5126 14.6466Z" fill="#E94225"/>
<path d="M35.5127 25.8328V41.0326C35.5127 41.9319 34.7889 42.6557 33.8897 42.6557H23.5371L35.5127 25.8328Z" fill="#28A8E0"/>
<path d="M21.1243 13.0236L12 23.2226V14.6466C12 13.7474 12.7238 13.0236 13.6231 13.0236H21.1243Z" fill="#FBD602"/>
<path d="M31.0821 13.0236L12 36.6459V23.2226L21.1243 13.0236H31.0821Z" fill="#3F9043"/>
<path d="M29.5244 13.0236L23.7559 22.0821L31.0816 13.0236H29.5244Z" fill="#22407A"/>
<path d="M12 21.6873L19.3477 14.9976L12 23.2226V21.6873Z" fill="#22407A"/>
<path d="M17.8779 42.6776L27.6602 30.8774C28.077 30.3949 28.8227 30.9213 28.5156 31.4696L21.8698 42.6776H17.8779Z" fill="#28A8E0"/>
<path d="M30.5556 29.0349C30.5556 29.4955 30.1827 29.8684 29.7221 29.8684C29.2615 29.8684 28.8887 29.4955 28.8887 29.0349C28.8887 28.5743 29.2615 28.2014 29.7221 28.2014C30.1608 28.1795 30.5556 28.5743 30.5556 29.0349Z" fill="#28A8E0"/>
</svg>
