<svg width="26" height="28" viewBox="0 0 26 28" fill="none" xmlns="http://www.w3.org/2000/svg">
<mask id="mask0_4236_24788" style="mask-type:alpha" maskUnits="userSpaceOnUse" x="1" y="0" width="24" height="23">
<path fill-rule="evenodd" clip-rule="evenodd" d="M1.0874 0.390625H24.363V22.0611H1.0874V0.390625Z" fill="white"/>
</mask>
<g mask="url(#mask0_4236_24788)">
<path fill-rule="evenodd" clip-rule="evenodd" d="M24.363 11.2259C24.363 17.21 19.1526 22.0611 12.7252 22.0611C6.29778 22.0611 1.0874 17.21 1.0874 11.2259C1.0874 5.24175 6.29778 0.390625 12.7252 0.390625C19.1526 0.390625 24.363 5.24175 24.363 11.2259Z" fill="#C4CBEB"/>
</g>
<path fill-rule="evenodd" clip-rule="evenodd" d="M1.06543 12.7011L13.5329 4.37793L26.0002 12.7011V26.8997H1.06543V12.7011Z" fill="#233DA3"/>
<path fill-rule="evenodd" clip-rule="evenodd" d="M4.28223 15.0674V6.79102H22.7823V15.0674L16.7969 19.6606H10.2675L4.28223 15.0674Z" fill="#C4CBEB"/>
<mask id="mask1_4236_24788" style="mask-type:alpha" maskUnits="userSpaceOnUse" x="0" y="12" width="26" height="16">
<path fill-rule="evenodd" clip-rule="evenodd" d="M0.260742 12.4521H25.9963V27.6088H0.260742V12.4521Z" fill="white"/>
</mask>
<g mask="url(#mask1_4236_24788)">
<path fill-rule="evenodd" clip-rule="evenodd" d="M25.5693 27.6087C25.4642 27.6087 25.3592 27.5735 25.2762 27.5022L16.205 19.6786H10.052L0.980802 27.5022C0.809013 27.6506 0.539239 27.6434 0.376907 27.4855C0.21516 27.3279 0.223447 27.0804 0.394749 26.9326L9.22406 19.3184L0.428093 13.1543C0.241289 13.0228 0.205702 12.7772 0.348535 12.6055C0.492051 12.4343 0.760654 12.4012 0.947458 12.5327L10.0275 18.8961H16.2296L25.3096 12.5327C25.4965 12.4012 25.7656 12.4343 25.9085 12.6055C26.0513 12.7772 26.0158 13.0228 25.8289 13.1543L17.033 19.3184L25.8623 26.9326C26.0336 27.0804 26.042 27.3279 25.8801 27.4855C25.7961 27.5675 25.6827 27.6087 25.5693 27.6087Z" fill="#161616"/>
</g>
<mask id="mask2_4236_24788" style="mask-type:alpha" maskUnits="userSpaceOnUse" x="0" y="3" width="26" height="25">
<path fill-rule="evenodd" clip-rule="evenodd" d="M0.260742 3.57666H25.9963V27.4551H0.260742V3.57666Z" fill="white"/>
</mask>
<g mask="url(#mask2_4236_24788)">
<path fill-rule="evenodd" clip-rule="evenodd" d="M8.78883 7.34542C8.65867 7.34542 8.52919 7.2897 8.44525 7.1844C8.30505 7.00846 8.34502 6.76086 8.53524 6.63033L12.8745 3.65407C13.0257 3.55086 13.2315 3.55086 13.3828 3.65407L17.642 6.57515C17.8321 6.70514 17.8722 6.95328 17.7321 7.12922C17.592 7.30571 17.3251 7.34226 17.1349 7.21281L13.1287 4.4656L9.04232 7.26808C8.96608 7.32009 8.87716 7.34542 8.78883 7.34542ZM25.5693 27.4552H0.687778C0.451933 27.4552 0.260742 27.2777 0.260742 27.059V12.5046C0.260742 12.3787 0.3247 12.2606 0.433702 12.1857L3.66865 9.96737C3.85886 9.83783 4.12581 9.87501 4.26582 10.051C4.40602 10.2269 4.36594 10.475 4.1769 10.605L1.11481 12.7042V26.6628H25.1422V12.7042L22.158 10.6581C21.9678 10.5282 21.9279 10.28 22.068 10.1041C22.2081 9.92811 22.4761 9.89102 22.6651 10.0205L25.8234 12.1857C25.9324 12.2606 25.9963 12.3787 25.9963 12.5046V27.059C25.9963 27.2777 25.805 27.4552 25.5693 27.4552Z" fill="#233DA3"/>
</g>
<path fill-rule="evenodd" clip-rule="evenodd" d="M22.3541 14.8342C22.1175 14.8342 21.9257 14.6454 21.9257 14.4128V6.82889H4.33471V14.4128C4.33471 14.6454 4.14284 14.8342 3.90637 14.8342C3.6698 14.8342 3.47803 14.6454 3.47803 14.4128V6.40756C3.47803 6.17487 3.6698 5.98633 3.90637 5.98633H22.3541C22.5905 5.98633 22.7824 6.17487 22.7824 6.40756V14.4128C22.7824 14.6454 22.5905 14.8342 22.3541 14.8342Z" fill="#161616"/>
<path fill-rule="evenodd" clip-rule="evenodd" d="M9.71107 14.8352C9.5691 14.8352 9.45397 14.7136 9.45397 14.5636V13.115H8.01419V14.5636C8.01419 14.7136 7.89906 14.8352 7.75709 14.8352C7.61503 14.8352 7.5 14.7136 7.5 14.5636V11.1231C7.5 10.9731 7.61503 10.8515 7.75709 10.8515C7.89906 10.8515 8.01419 10.9731 8.01419 11.1231V12.5718H9.45397V11.1231C9.45397 10.9731 9.5691 10.8515 9.71107 10.8515C9.85294 10.8515 9.96816 10.9731 9.96816 11.1231V14.5636C9.96816 14.7136 9.85294 14.8352 9.71107 14.8352ZM12.6418 14.8343H11.0135C10.8715 14.8343 10.7564 14.7126 10.7564 14.5626V11.1221C10.7564 10.9721 10.8715 10.8505 11.0135 10.8505H12.6418C12.7837 10.8505 12.8989 10.9721 12.8989 11.1221C12.8989 11.2721 12.7837 11.3937 12.6418 11.3937H11.2706V12.5708H12.316C12.458 12.5708 12.5731 12.6924 12.5731 12.8424C12.5731 12.9923 12.458 13.1141 12.316 13.1141H11.2706V14.291H12.6418C12.7837 14.291 12.8989 14.4128 12.8989 14.5626C12.8989 14.7126 12.7837 14.8343 12.6418 14.8343ZM15.5726 14.8343H13.9444C13.8024 14.8343 13.6873 14.7126 13.6873 14.5626V11.1221C13.6873 10.9721 13.8024 10.8505 13.9444 10.8505C14.0863 10.8505 14.2015 10.9721 14.2015 11.1221V14.291H15.5726C15.7146 14.291 15.8297 14.4128 15.8297 14.5626C15.8297 14.7126 15.7146 14.8343 15.5726 14.8343ZM16.8068 12.9442C17.1633 12.9719 17.7391 12.952 18.0384 12.6837C18.1786 12.5581 18.2466 12.3847 18.2466 12.1545C18.2466 11.924 18.1783 11.7506 18.0376 11.6247C17.7364 11.3549 17.162 11.335 16.8068 11.3641V12.9442ZM16.5497 14.8342C16.4078 14.8342 16.2926 14.7126 16.2926 14.5626V11.1221C16.2926 10.9894 16.3834 10.8759 16.5075 10.854C16.5575 10.8455 17.7391 10.6446 18.3702 11.2101C18.6255 11.439 18.7608 11.7654 18.7608 12.1545C18.7608 12.5435 18.6259 12.8699 18.3702 13.0984C17.9259 13.4959 17.2098 13.5158 16.8068 13.4878V14.5626C16.8068 14.7126 16.6917 14.8342 16.5497 14.8342Z" fill="#161616"/>
</svg>
