<svg width="25" height="24" viewBox="0 0 25 24" fill="none" xmlns="http://www.w3.org/2000/svg">
<path fill-rule="evenodd" clip-rule="evenodd" d="M11.9438 24H4.11572C2.17719 24 0.600098 22.4229 0.600098 20.4844V3.51562C0.600098 1.57709 2.17719 0 4.11572 0H21.0845C23.023 0 24.6001 1.57709 24.6001 3.51562V20.4844C24.6001 22.4229 23.023 24 21.0845 24H14.7563V15.4688H18.3795L18.8482 12.6562H14.7563V9.84375C14.7563 9.0683 15.3871 8.4375 16.1626 8.4375H18.9751V5.625H15.4595C13.5209 5.625 11.9438 7.20209 11.9438 9.14062V12.6562H9.13135V15.4688H11.9438V24ZM4.11572 1.40625C2.95264 1.40625 2.00635 2.35254 2.00635 3.51562V20.4844C2.00635 21.6475 2.95264 22.5938 4.11572 22.5938H10.5376V16.875H7.7251V11.25H10.5376V9.14062C10.5376 6.42664 12.7455 4.21875 15.4595 4.21875H20.3813V9.84375H16.1626V11.25H20.5082L19.5707 16.875H16.1626V22.5938H21.0845C22.2476 22.5938 23.1938 21.6475 23.1938 20.4844V3.51562C23.1938 2.35254 22.2476 1.40625 21.0845 1.40625H4.11572Z" fill="#424242"/>
</svg>
