<svg width="25" height="24" viewBox="0 0 25 24" fill="none" xmlns="http://www.w3.org/2000/svg">
<path fill-rule="evenodd" clip-rule="evenodd" d="M7.09668 0H18.1035C21.6858 0 24.6001 2.91431 24.6001 6.49658V17.5036C24.6001 21.0857 21.6858 24 18.1037 24H7.09668C3.5144 24 0.600098 21.0857 0.600098 17.5036V6.49658C0.600098 2.91431 3.5144 0 7.09668 0ZM18.1035 22.593C20.91 22.593 23.1931 20.3099 23.1931 17.5036V6.49658C23.1931 3.69012 20.91 1.40698 18.1037 1.40698H7.09668C4.29022 1.40698 2.00708 3.69012 2.00708 6.49658V17.5036C2.00708 20.3099 4.29022 22.593 7.09668 22.593H18.1035Z" fill="#424242"/>
<path fill-rule="evenodd" clip-rule="evenodd" d="M6.0376 11.9998C6.0376 8.38129 8.98138 5.4375 12.5999 5.4375C16.2184 5.4375 19.1622 8.38129 19.1622 11.9998C19.1622 15.6183 16.2184 18.5621 12.5999 18.5621C8.98138 18.5621 6.0376 15.6183 6.0376 11.9998ZM7.44458 11.9998C7.44458 14.8425 9.75739 17.1552 12.5999 17.1552C15.4426 17.1552 17.7552 14.8425 17.7552 11.9998C17.7552 9.15729 15.4426 6.84448 12.5999 6.84448C9.75739 6.84448 7.44458 9.15729 7.44458 11.9998Z" fill="#424242"/>
<path fill-rule="evenodd" clip-rule="evenodd" d="M17.3804 5.04602C17.3804 3.97687 18.2501 3.10693 19.3195 3.10693C20.3888 3.10693 21.2587 3.97668 21.2587 5.04602C21.2587 6.11536 20.3888 6.98529 19.3195 6.98529C18.2501 6.98529 17.3804 6.11536 17.3804 5.04602ZM18.7874 5.04602C18.7874 5.33936 19.0261 5.57812 19.3195 5.57812C19.613 5.57812 19.8517 5.33936 19.8517 5.04602C19.8517 4.7525 19.613 4.51392 19.3195 4.51392C19.0261 4.51392 18.7874 4.7525 18.7874 5.04602Z" fill="#424242"/>
</svg>
