<svg width="29" height="28" viewBox="0 0 29 28" fill="none" xmlns="http://www.w3.org/2000/svg">
<g id="Group 13">
<path id="Fill 1" fill-rule="evenodd" clip-rule="evenodd" d="M0.875488 14.4317C0.875488 6.93713 6.95038 0.862793 14.4445 0.862793C21.9384 0.862793 28.0133 6.93713 28.0133 14.4317C28.0133 21.9264 21.9384 28.0006 14.4445 28.0006C6.39848 26.1685 2.70025 21.0155 0.875488 14.4317Z" fill="#C4CBEB"/>
<path id="Fill 3" fill-rule="evenodd" clip-rule="evenodd" d="M15.3994 19.474L12.7172 21.9014C9.9001 20.4281 7.5767 18.1672 6.03138 15.3975L8.60681 12.5745L4.2214 6.11475L0.954989 9.29622C0.832655 10.5234 0.850643 11.7607 1.00895 12.9838C2.16024 21.6546 9.98835 27.8684 18.7319 27.0528L21.8849 23.842L15.3994 19.474Z" fill="#233DA3"/>
<g id="Group 9">
<mask id="mask0_4236_24744" style="mask-type:alpha" maskUnits="userSpaceOnUse" x="-1" y="6" width="23" height="22">
<path id="Clip 8" fill-rule="evenodd" clip-rule="evenodd" d="M-0.000488281 6.18604H21.8321V28H-0.000488281V6.18604Z" fill="white"/>
</mask>
<g mask="url(#mask0_4236_24744)">
<path id="Fill 7" fill-rule="evenodd" clip-rule="evenodd" d="M0.979443 10.0175C0.878498 11.1492 0.901222 12.2928 1.04751 13.4184C2.08251 21.2098 8.81241 27.0868 16.7019 27.0875H16.7031C17.1415 27.0875 17.5858 27.069 18.0266 27.0328L20.6626 24.3503L14.9599 20.512L12.5568 22.6856C12.4134 22.8152 12.2056 22.8408 12.0348 22.7522C9.14446 21.2414 6.7777 18.9412 5.19159 16.0995C5.09609 15.9284 5.12049 15.7156 5.25306 15.5712L7.57437 13.0279L3.71815 7.35178L0.979443 10.0175ZM16.7021 28H16.7009C8.35331 27.9994 1.2323 21.7812 0.13709 13.5363C-0.0254273 12.2858 -0.0439617 11.0169 0.0814864 9.76275C0.092272 9.65635 0.140022 9.55651 0.217092 9.48158L3.46879 6.31664C3.56618 6.2216 3.70472 6.17345 3.8355 6.18887C3.97111 6.20252 4.09352 6.27506 4.16933 6.3874L8.53489 12.8136C8.65374 12.9877 8.63698 13.2201 8.49415 13.3758L6.15451 15.9392C7.59727 18.4029 9.6701 20.4172 12.1784 21.7925L14.6083 19.5951C14.7667 19.4525 15.0001 19.4371 15.1739 19.5548L21.6303 23.9001C21.7432 23.9755 21.8159 24.0973 21.8298 24.2323C21.8435 24.3666 21.7964 24.5005 21.7013 24.5973L18.5625 27.7914C18.4865 27.8686 18.3857 27.9168 18.2775 27.9269C17.7538 27.9755 17.2241 28 16.7021 28Z" fill="#161616"/>
</g>
</g>
<g id="Group 12">
<mask id="mask1_4236_24744" style="mask-type:alpha" maskUnits="userSpaceOnUse" x="4" y="0" width="24" height="24">
<path id="Clip 11" fill-rule="evenodd" clip-rule="evenodd" d="M4.41113 0H27.9979V23.5876H4.41113V0Z" fill="white"/>
</mask>
<g mask="url(#mask1_4236_24744)">
<path id="Fill 10" fill-rule="evenodd" clip-rule="evenodd" d="M23.6573 23.5876C23.5403 23.5876 23.4239 23.5432 23.3348 23.4541C23.1566 23.2759 23.1566 22.9873 23.3348 22.8091C28.3367 17.8067 28.3367 9.66644 23.3348 4.66401C20.9114 2.24052 17.6893 0.905646 14.2622 0.905646C10.8352 0.905646 7.61308 2.24052 5.1897 4.66401C5.01154 4.84216 4.72291 4.84216 4.54475 4.66401C4.36659 4.48585 4.36659 4.19722 4.54475 4.01906C9.9035 -1.33969 18.6211 -1.33969 23.9798 4.01906C29.3373 9.37729 29.3373 18.0959 23.9798 23.4541C23.8907 23.5432 23.7743 23.5876 23.6573 23.5876Z" fill="#161616"/>
</g>
</g>
</g>
</svg>
