<svg width="33" height="32" viewBox="0 0 33 32" fill="none" xmlns="http://www.w3.org/2000/svg">
<path fill-rule="evenodd" clip-rule="evenodd" d="M11.0967 4H22.1035C25.6858 4 28.6001 6.91431 28.6001 10.4966V21.5036C28.6001 25.0857 25.6858 28 22.1037 28H11.0967C7.5144 28 4.6001 25.0857 4.6001 21.5036V10.4966C4.6001 6.91431 7.5144 4 11.0967 4ZM22.1037 26.593C24.9101 26.593 27.1933 24.3098 27.1933 21.5035V10.4965C27.1933 7.69007 24.9101 5.40693 22.1039 5.40693H11.0968C8.29039 5.40693 6.00725 7.69007 6.00725 10.4965V21.5035C6.00725 24.3098 8.29039 26.593 11.0968 26.593H22.1037Z" fill="#424242"/>
<path d="M22.2064 13.1531C22.2064 13.032 22.2042 12.912 22.1987 12.7931C22.7169 12.4069 23.1664 11.9236 23.522 11.3705C23.0464 11.5844 22.5358 11.7273 21.9991 11.7872C22.5467 11.4501 22.9667 10.9112 23.1653 10.2643C22.6525 10.5752 22.0853 10.7978 21.482 10.9134C20.9987 10.3636 20.3093 10.0134 19.5467 10.0003C18.0827 9.97634 16.8958 11.2134 16.8958 12.7636C16.8958 12.984 16.9187 13.1978 16.9645 13.404C14.7598 13.2621 12.806 12.1145 11.499 10.3843C11.271 10.7989 11.1401 11.2832 11.1401 11.8025C11.1401 12.7844 11.6081 13.6571 12.3194 14.172C11.8841 14.1524 11.4761 14.0204 11.1183 13.8043C11.1183 13.8163 11.1183 13.8283 11.1183 13.8403C11.1183 15.2127 12.0325 16.3625 13.2456 16.6309C13.023 16.6941 12.7885 16.7269 12.5474 16.7258C12.3761 16.7247 12.2103 16.7062 12.0488 16.6712C12.3859 17.796 13.3656 18.6174 14.5252 18.6447C13.6175 19.3974 12.4743 19.8469 11.2328 19.8436C11.019 19.8436 10.8074 19.8294 10.6001 19.8032C11.7739 20.6083 13.167 21.0774 14.6648 21.0774C19.5401 21.0785 22.2064 16.8349 22.2064 13.1531Z" fill="#424242"/>
</svg>
