<svg width="32" height="32" viewBox="0 0 32 32" fill="none" xmlns="http://www.w3.org/2000/svg">
<path fill-rule="evenodd" clip-rule="evenodd" d="M27.5847 13.0504C27.5847 19.8096 22.1055 25.2889 15.3463 25.2889C8.58719 25.2889 3.10791 19.8096 3.10791 13.0504C3.10791 6.2913 8.58719 0.812012 15.3463 0.812012C22.1055 0.812012 27.5847 6.2913 27.5847 13.0504Z" fill="#C4CBEB"/>
<path fill-rule="evenodd" clip-rule="evenodd" d="M5.82747 4.8916C4.32052 4.8916 3.10791 5.86167 3.10791 7.06721V16.3137C3.10791 17.5192 4.33315 18.3338 5.82747 18.4898H7.18688V21.2095L10.5864 18.4898H16.7062C18.2126 18.4898 19.4258 17.5192 19.4258 16.3137V7.06721C19.4258 5.86167 18.2126 4.8916 16.7062 4.8916H5.82747Z" fill="#D5DDF7"/>
<path fill-rule="evenodd" clip-rule="evenodd" d="M7.43871 22.0254C7.37377 22.0254 7.30814 22.0142 7.24589 21.9914C7.05766 21.9219 6.93506 21.7584 6.93506 21.5766V19.1834H6.16322C4.47841 19.1834 3.10791 17.9621 3.10791 16.4605V6.79786C3.10791 5.29679 4.47841 4.07568 6.16322 4.07568H16.3705C18.0552 4.07568 19.4258 5.29679 19.4258 6.79786V13.0504C19.4258 13.2982 19.2002 13.4993 18.9222 13.4993C18.6441 13.4993 18.4185 13.2982 18.4185 13.0504V6.79786C18.4185 5.79176 17.4997 4.97317 16.3705 4.97317H6.16322C5.03394 4.97317 4.11519 5.79176 4.11519 6.79786V16.4605C4.11519 17.4672 5.03394 18.2858 6.16322 18.2858H7.43871C7.71677 18.2858 7.94235 18.4868 7.94235 18.7346V20.4932L10.2724 18.4173C10.3667 18.3332 10.4953 18.2858 10.6284 18.2858H16.3705C16.6487 18.2858 16.8741 18.4868 16.8741 18.7346C16.8741 18.9823 16.6487 19.1834 16.3705 19.1834H10.837L7.79475 21.8939C7.69834 21.9798 7.56927 22.0254 7.43871 22.0254Z" fill="#161616"/>
<path fill-rule="evenodd" clip-rule="evenodd" d="M26.4963 13.8662C28.003 13.8662 29.2163 14.837 29.2163 16.0424V25.2889C29.2163 26.4944 28.003 27.4645 26.4963 27.4645H25.1368V30.1841L21.7374 27.4645H15.6185C14.1116 27.4645 12.8984 26.4944 12.8984 25.2889V16.0424C12.8984 14.837 14.1116 13.8662 15.6185 13.8662H26.4963Z" fill="#233DA3"/>
<path fill-rule="evenodd" clip-rule="evenodd" d="M15.954 13.9481C14.8242 13.9481 13.9055 14.7668 13.9055 15.7734V25.436C13.9055 26.4421 14.8242 27.2607 15.954 27.2607H21.6952C21.829 27.2607 21.9569 27.3081 22.0514 27.3922L24.3813 29.4682V27.7096C24.3813 27.4617 24.6068 27.2607 24.8849 27.2607H26.1603C27.2902 27.2607 28.209 26.4421 28.209 25.436V15.7734C28.209 14.7668 27.2902 13.9481 26.1603 13.9481H15.954ZM24.8851 31C24.7539 31 24.6254 30.9544 24.5291 30.8686L21.487 28.158H15.9542C14.2697 28.158 12.8984 26.9368 12.8984 25.4357V15.7731C12.8984 14.2714 14.2697 13.0503 15.9542 13.0503H26.1605C27.8452 13.0503 29.2163 14.2714 29.2163 15.7731V25.4357C29.2163 26.9368 27.8452 28.158 26.1605 28.158H25.3886V30.5512C25.3886 30.733 25.2661 30.8966 25.0778 30.9662C25.0156 30.9889 24.95 31 24.8851 31Z" fill="#161616"/>
<path fill-rule="evenodd" clip-rule="evenodd" d="M17.6307 19.5935C18.2076 19.4813 18.706 19.9798 18.5939 20.5567C18.5317 20.8774 18.2721 21.1351 17.951 21.1948C17.3779 21.3014 16.8861 20.8097 16.9927 20.2366C17.0524 19.9154 17.3102 19.6558 17.6307 19.5935Z" fill="#C4CBEB"/>
<path fill-rule="evenodd" clip-rule="evenodd" d="M20.0779 19.5935C20.6549 19.4813 21.1534 19.9798 21.0412 20.5567C20.9789 20.8774 20.7193 21.1351 20.3983 21.1948C19.8251 21.3014 19.3333 20.8097 19.4399 20.2366C19.4995 19.9154 19.7573 19.6558 20.0779 19.5935Z" fill="#C4CBEB"/>
<path fill-rule="evenodd" clip-rule="evenodd" d="M22.5262 19.5935C23.1031 19.4813 23.6015 19.9798 23.4895 20.5567C23.4271 20.8774 23.1676 21.1351 22.8465 21.1948C22.2733 21.3014 21.7816 20.8097 21.8882 20.2366C21.9479 19.9154 22.2057 19.6558 22.5262 19.5935Z" fill="#C4CBEB"/>
<path fill-rule="evenodd" clip-rule="evenodd" d="M24.9735 19.5935C25.5504 19.4813 26.0489 19.9798 25.9367 20.5567C25.8744 20.8774 25.6149 21.1351 25.2938 21.1948C24.7206 21.3014 24.2288 20.8097 24.3354 20.2366C24.3951 19.9154 24.653 19.6558 24.9735 19.5935Z" fill="#C4CBEB"/>
<path fill-rule="evenodd" clip-rule="evenodd" d="M7.02428 10.6189C7.60111 10.5067 8.09959 11.0052 7.9875 11.5821C7.92524 11.9028 7.66561 12.1605 7.34454 12.2202C6.77148 12.3268 6.27962 11.8351 6.38621 11.262C6.44592 10.9408 6.70371 10.6813 7.02428 10.6189Z" fill="#233DA3"/>
<path fill-rule="evenodd" clip-rule="evenodd" d="M9.47255 10.6189C10.0494 10.5067 10.5479 11.0052 10.4357 11.5821C10.3735 11.9028 10.1139 12.1605 9.79283 12.2202C9.21964 12.3268 8.72786 11.8351 8.83445 11.262C8.89417 10.9408 9.15197 10.6813 9.47255 10.6189Z" fill="#233DA3"/>
<path fill-rule="evenodd" clip-rule="evenodd" d="M11.9193 10.6189C12.4961 10.5067 12.9946 11.0052 12.8825 11.5821C12.8203 11.9028 12.5606 12.1605 12.2396 12.2202C11.6665 12.3268 11.1746 11.8351 11.2812 11.262C11.3409 10.9408 11.5987 10.6813 11.9193 10.6189Z" fill="#233DA3"/>
<path fill-rule="evenodd" clip-rule="evenodd" d="M14.3671 10.6189C14.9439 10.5067 15.4424 11.0052 15.3303 11.5821C15.268 11.9028 15.0084 12.1605 14.6873 12.2202C14.1142 12.3268 13.6224 11.8351 13.729 11.262C13.7887 10.9408 14.0465 10.6813 14.3671 10.6189Z" fill="#233DA3"/>
</svg>
