<svg width="64" height="64" viewBox="0 0 64 64" fill="none" xmlns="http://www.w3.org/2000/svg">
<g clip-path="url(#clip0_4060_47083)">
<path d="M42.4916 23.8583C43.1406 23.2094 43.1406 22.1572 42.4916 21.5083C41.8427 20.8594 40.7906 20.8594 40.1416 21.5083L32 29.65L23.8583 21.5083C23.2094 20.8594 22.1572 20.8594 21.5083 21.5083C20.8594 22.1572 20.8594 23.2094 21.5083 23.8583L29.65 32L21.5083 40.1416C20.8594 40.7906 20.8594 41.8427 21.5083 42.4916C22.1572 43.1406 23.2094 43.1406 23.8583 42.4916L32 34.35L40.1416 42.4916C40.7906 43.1406 41.8427 43.1406 42.4916 42.4916C43.1406 41.8427 43.1406 40.7906 42.4916 40.1416L34.35 32L42.4916 23.8583Z" fill="#C62828"/>
</g>
<rect x="1.5" y="1.5" width="61" height="61" rx="30.5" stroke="#C62828" stroke-width="3"/>
<defs>
<clipPath id="clip0_4060_47083">
<rect x="12" y="12" width="40" height="40" rx="20" fill="white"/>
</clipPath>
</defs>
</svg>
